<svg xmlns="http://www.w3.org/2000/svg" xmlns:xlink="http://www.w3.org/1999/xlink" width="480" height="462" viewBox="0 0 480 462">
    <defs>
        <path id="b" d="M237.984 409.768l-74.512.232a60.73 60.73 0 0 1-52.84-30.463l-37.015-64.389-37.335-64.04a60.73 60.73 0 0 1 .003-61.177l37.348-64.05 37.035-64.41a60.73 60.73 0 0 1 52.826-30.458l74.522.219L312.528 31a60.73 60.73 0 0 1 52.84 30.463l37.015 64.389 37.335 64.04a60.73 60.73 0 0 1-.003 61.177l-37.348 64.05-37.035 64.41a60.73 60.73 0 0 1-52.826 30.458l-74.522-.219z"/>
        <filter id="a" width="122.8%" height="125.3%" x="-11.4%" y="-12.7%" filterUnits="objectBoundingBox">
            <feMorphology in="SourceAlpha" operator="dilate" radius="2.5" result="shadowSpreadOuter1"/>
            <feOffset in="shadowSpreadOuter1" result="shadowOffsetOuter1"/>
            <feGaussianBlur in="shadowOffsetOuter1" result="shadowBlurOuter1" stdDeviation="13.5"/>
            <feColorMatrix in="shadowBlurOuter1" values="0 0 0 0 0 0 0 0 0 0 0 0 0 0 0 0 0 0 0.01 0"/>
        </filter>
        <path id="c" d="M0 0h274.286v274.133H0z"/>
    </defs>
    <g fill="none" fill-rule="evenodd">
        <g transform="rotate(-171 239.394 225.421)">
            <use fill="#000" filter="url(#a)" xlink:href="#b"/>
            <use fill="#FFF" xlink:href="#b"/>
        </g>
        <g transform="matrix(-1 0 0 1 381.748 88.83)">
            <mask id="d" fill="#fff">
                <use xlink:href="#c"/>
            </mask>
            <g mask="url(#d)">
                <g fill-rule="nonzero" transform="translate(26.286 11.422)">
                    <ellipse cx="97.608" cy="241.196" fill="#E9E9ED" rx="25.221" ry="2.358"/>
                    <ellipse cx="164.274" cy="242.009" fill="#E9E9ED" rx="16.399" ry="2.358"/>
                    <ellipse cx="196.185" cy="248.497" fill="#E9E9ED" rx="14.038" ry="2.358"/>
                    <path fill="#FCD8C4" d="M101.277 156.963h31.035c6.83 0 12.368 5.533 12.368 12.358v47.652H88.91v-47.652c0-3.278 1.303-6.421 3.622-8.739a12.374 12.374 0 0 1 8.746-3.62z"/>
                    <path fill="#FF8848" d="M144.68 223.461l-29.22 5.943-31.663-12.441v-8.703h60.883z"/>
                    <path fill="#DDE1ED" d="M108.224 231.463c-51.203 0-92.712-41.475-92.712-92.636 0-51.162 41.509-92.637 92.712-92.637 51.204 0 92.712 41.475 92.712 92.637-.056 51.138-41.532 92.58-92.712 92.636zm0-182.184c-49.495 0-89.62 40.092-89.62 89.548 0 49.455 40.125 89.547 89.62 89.547 49.496 0 89.62-40.092 89.62-89.547-.028-49.444-40.136-89.52-89.62-89.548z"/>
                    <path fill="#FCD8C4" d="M72.387 116.375l78.591.217a7.217 7.217 0 0 1 5.45 2.567 7.205 7.205 0 0 1 1.6 5.805c-3.67 21.556-21.284 37.89-42.465 37.89-23.84 0-43.176-20.701-43.176-46.242"/>
                    <path fill="#FCD8C4" d="M150.38 116.375c9.216 0 16.687 7.465 16.687 16.674v72.276H150.38v-88.95z"/>
                    <path fill="#FFE67B" d="M177.055 86.231s-38.033 22.657-38.806-36.653c-.35-26.57-13.544-41.978-13.544-41.978s43.506-22.533 52.36 12.555c8.462 33.615-21.593 46.982-.01 66.076z"/>
                    <path fill="#FF8848" d="M123.992 8.394a2.478 2.478 0 0 1 3.389-.911l9.943 5.738a2.473 2.473 0 0 1 .905 3.388 2.478 2.478 0 0 1-3.388.91l-9.944-5.737a2.473 2.473 0 0 1-.905-3.388z"/>
                    <path fill="#FCD8C4" d="M127.808 32.956L82.91 37.982c0 .69-.072 1.38-.072 2.06v32.4c.05 17.36 14.123 31.421 31.498 31.472 17.375-.051 31.448-14.112 31.499-31.473V50.33c-14.337-2.75-18.027-17.374-18.027-17.374z"/>
                    <path fill="#FCCC2F" d="M114.316 8.62c-16.567.052-30.281 12.879-31.426 29.393l44.918-5.057s3.71 14.603 18.027 17.353V40.072c-.062-17.36-14.144-31.412-31.52-31.452z"/>
                    <path fill="#FCD8C4" d="M99.968 116.931v-18.32h27.922v18.32l-13.574 8.723zM78.344 52.7a2.06 2.06 0 0 1 2.053-2.061h4.841c1.134 0 2.053.914 2.053 2.062v14.32a2.06 2.06 0 0 1-2.053 2.063h-4.841a2.052 2.052 0 0 1-2.053-2.062V52.7zM140.857 52.7a2.06 2.06 0 0 1 2.052-2.061h4.842c1.133 0 2.052.914 2.052 2.062v14.32a2.06 2.06 0 0 1-2.052 2.063h-4.842a2.052 2.052 0 0 1-2.052-2.062V52.7z"/>
                    <path fill="#F7B192" d="M117.253 71.936c0 1.133-1.628 2.06-3.638 2.06s-3.638-.916-3.638-2.06c0-1.143 1.628-5.777 3.638-5.777s3.638 4.645 3.638 5.777z"/>
                    <ellipse cx="99.803" cy="60.762" fill="#878DA8" rx="2.422" ry="2.42"/>
                    <ellipse cx="127.272" cy="60.762" fill="#878DA8" rx="2.422" ry="2.42"/>
                    <path fill="#FFF" d="M104.596 82.266h18.78v2.884h-18.78zM116.985 90.536h-5.947l-3.844-2.894h13.595z"/>
                    <path fill="#DD6868" d="M113.986 91.216c-6.07 0-10.998-4.017-10.998-8.94v-1.03h22.006v1.03c0 4.923-4.937 8.94-11.008 8.94zm-8.854-7.92c.65 3.306 4.37 5.85 8.844 5.85 4.473 0 8.194-2.544 8.843-5.85h-17.687z"/>
                    <ellipse cx="94.774" cy="71.071" fill="#F9C5C8" rx="5.03" ry="4.912"/>
                    <ellipse cx="132.302" cy="71.071" fill="#F9C5C8" rx="5.03" ry="4.912"/>
                    <path fill="#2F3A5B" d="M127.272 87.652a1.546 1.546 0 0 1-.454-3.017c.114 0 10.926-3.43 16.966-11.607l.474-26.838a1.545 1.545 0 0 1 1.546-1.514 1.547 1.547 0 0 1 1.587 1.565l-.484 27.323c-.007.31-.108.612-.289.865-6.596 9.33-18.367 13.007-18.862 13.161-.157.047-.32.068-.484.062z"/>
                    <ellipse cx="125.499" cy="87.302" fill="#2F3A5B" rx="4.71" ry="4.707"/>
                    <path fill="#E8AE0A" d="M135.466 55.88c-.173.002-.343-.04-.495-.123l-3.824-2.06c-2.401 0-6.02 0-6.648.052a1.03 1.03 0 0 1-1.206-1.112c0-.515.072-.752 1.216-.876h.104c1.03-.103 3.092-.103 6.782-.113h.268l4.298 2.338a1.03 1.03 0 0 1-.495 1.936v-.041zM91.022 55.88a1.03 1.03 0 0 1-.495-1.935l4.298-2.338h.268c3.7 0 5.7 0 6.782.113h.114c1.154.124 1.175.36 1.216.875l.082.927-.927.175a1.032 1.032 0 0 1-.371 0c-.63 0-4.247 0-6.649-.051l-3.823 2.06c-.148.1-.318.16-.495.175z"/>
                    <path fill="#FFEFAE" d="M170.294 47.024h-.268a1.545 1.545 0 0 1-1.248-1.792l.165-.917c1.371-7.291 5.525-29.495-15.976-36.272a1.545 1.545 0 1 1 .928-2.945c15.997 5.046 22.078 18.424 18.089 39.784l-.165.885c-.14.732-.78 1.26-1.525 1.257zM169.974 86.138c-.271 0-.538-.07-.773-.206-10.359-5.952-7.596-19.629-4.69-26.035a1.547 1.547 0 0 1 2.814 1.277c-.072.155-7.102 16.046 3.412 22.08a1.544 1.544 0 0 1-.773 2.884h.01z"/>
                    <path fill="#FFE67B" d="M136.517 17.848s7.02 29.402-37.652 34.758c-16.377 1.957-26.159 8.064-26.159 8.064s-5.823-30.412 18.275-35.263c21.098-4.243 43.516-2.956 45.536-7.56z"/>
                    <path fill="#FFEFAE" d="M121.685 40.103a1.546 1.546 0 0 1-.917-2.79c5.04-3.688 6.514-7.57 6.524-7.612a1.547 1.547 0 0 1 2.897 1.03c-.072.196-1.825 4.8-7.607 9.022-.254.21-.568.332-.897.35zM92.001 48.527a1.546 1.546 0 0 1-.412-3.038 55.544 55.544 0 0 1 10.39-1.967 42.546 42.546 0 0 0 12.296-2.677 1.544 1.544 0 1 1 1.134 2.873 45.579 45.579 0 0 1-13.183 2.894 52.46 52.46 0 0 0-9.802 1.864c-.138.036-.28.054-.423.051zM76.53 54.346a1.546 1.546 0 0 1-.68-2.935c.113-.062 2.886-1.41 7.009-3.007a1.545 1.545 0 1 1 1.113 2.884c-3.99 1.544-6.73 2.883-6.762 2.893a1.547 1.547 0 0 1-.68.165z"/>
                    <path fill="#FF8848" d="M86.724 150.01l-10.812-10.329v-22.945h10.812zM152.225 139.681l-9.926 10.33v-33.275h9.926z"/>
                    <path fill="#FF8848" d="M133.332 175.407H94.825c-10.43 0-18.893-9.207-18.893-20.597v-15.129h76.273v15.16c.02 11.36-8.442 20.566-18.873 20.566z"/>
                    <rect width="16.687" height="85.84" x="64.038" y="116.324" fill="#FCD8C4" rx="8.315"/>
                    <path fill="#FCD8C4" d="M16.152 101.52c-2.733-3.687-1.957-8.892 1.735-11.626l.039-.03c3.691-2.733 8.898-1.964 11.633 1.726l41.237 55.616c2.734 3.687 1.958 8.891-1.734 11.626l-.04.029c-3.69 2.734-8.897 1.965-11.633-1.725l-41.237-55.617z"/>
                    <path fill="#BFC3D4" d="M.845 115.137c0-4.805 3.898-8.7 8.705-8.7h70.654c4.807 0 8.705 3.89 8.705 8.7v94.66c0 4.805-3.898 8.7-8.705 8.7H9.55c-4.807 0-8.705-3.89-8.705-8.7v-94.66z"/>
                    <g transform="translate(0 95.778)">
                        <path fill="#878DA8" d="M.845 21.687c0-4.805 3.898-8.7 8.705-8.7h70.654c4.807 0 8.705 3.89 8.705 8.7v94.66c0 4.805-3.898 8.7-8.705 8.7H9.55c-4.807 0-8.705-3.89-8.705-8.7v-94.66z"/>
                        <path fill="#BFC3D4" d="M81.426 122.72H8.246a7.445 7.445 0 0 1-5.262-2.179 7.433 7.433 0 0 1-2.18-5.257v-97.19a7.439 7.439 0 0 1 7.442-7.435h73.18c4.11 0 7.442 3.33 7.442 7.436v97.178a7.433 7.433 0 0 1-2.176 5.265 7.445 7.445 0 0 1-5.266 2.181z"/>
                        <path fill="#878DA8" d="M9.699 20.253c0-1.721 1.39-3.116 3.114-3.116h64.138a3.115 3.115 0 0 1 3.114 3.116V114c0 1.72-1.39 3.116-3.114 3.116H12.813A3.115 3.115 0 0 1 9.7 114V20.253z"/>
                        <path fill="#FFF" d="M9.699 17.74c0-1.72 1.39-3.116 3.114-3.116h64.138a3.115 3.115 0 0 1 3.114 3.116v93.748c0 1.721-1.39 3.116-3.114 3.116H12.813a3.115 3.115 0 0 1-3.114-3.116V17.74z"/>
                        <path fill="#E9E9ED" d="M18.553 10.237h52.566v3.79a6.913 6.913 0 0 1-6.916 6.91H25.51a6.919 6.919 0 0 1-4.913-2.006 6.908 6.908 0 0 1-2.044-4.894v-3.8z"/>
                        <path fill="#1C2444" d="M18.553 8.012h52.566v3.79a6.913 6.913 0 0 1-6.916 6.91H25.51a6.919 6.919 0 0 1-4.917-2.009 6.908 6.908 0 0 1-2.04-4.9v-3.79z"/>
                        <ellipse cx="44.877" cy="8.012" fill="#1C2444" rx="7.936" ry="7.93"/>
                        <ellipse cx="44.877" cy="8.012" fill="#FFF" rx="2.804" ry="2.801"/>
                        <ellipse cx="23.057" cy="71.813" fill="#FFD766" rx="2.804" ry="2.801"/>
                        <ellipse cx="23.057" cy="85.891" fill="#FFD766" rx="2.804" ry="2.801"/>
                        <path fill="#68739B" d="M41.954 41.534c.834 0 1.51.675 1.51 1.52 0 .839-.674 1.52-1.51 1.52h-6.78a1.51 1.51 0 0 1-1.51-1.52c0-.84.674-1.52 1.51-1.52h6.78zM70.234 41.534c.834 0 1.51.675 1.51 1.52 0 .839-.669 1.52-1.51 1.52H47.256c-.834 0-1.51-.675-1.51-1.52 0-.84.669-1.52 1.51-1.52h22.978zM52.75 55.942c.836 0 1.514.675 1.514 1.52 0 .839-.685 1.52-1.515 1.52H35.18a1.513 1.513 0 0 1-1.514-1.52c0-.84.685-1.52 1.514-1.52h17.57zM70.238 55.942a1.51 1.51 0 0 1 1.508 1.52c0 .839-.683 1.52-1.508 1.52H57.827a1.51 1.51 0 0 1-1.507-1.52c0-.84.683-1.52 1.507-1.52h12.411zM52.661 87.416a1.513 1.513 0 0 1-1.515-1.52c0-.839.686-1.52 1.515-1.52h17.57c.836 0 1.514.675 1.514 1.52 0 .84-.685 1.52-1.515 1.52H52.661zM35.172 87.416a1.51 1.51 0 0 1-1.507-1.52c0-.839.683-1.52 1.507-1.52h12.411a1.51 1.51 0 0 1 1.508 1.52c0 .84-.683 1.52-1.508 1.52h-12.41zM41.455 70.299c.836 0 1.514.674 1.514 1.519 0 .84-.668 1.52-1.514 1.52h-6.267a1.513 1.513 0 0 1-1.514-1.52c0-.84.669-1.52 1.514-1.52h6.267zM49.365 70.299c.834 0 1.51.674 1.51 1.519 0 .84-.673 1.52-1.51 1.52h-2.843c-.834 0-1.51-.675-1.51-1.52 0-.84.672-1.52 1.51-1.52h2.843zM70.233 70.309c.835 0 1.512.674 1.512 1.52 0 .838-.675 1.519-1.512 1.519H54.586a1.512 1.512 0 0 1-1.512-1.52c0-.839.675-1.52 1.512-1.52h15.647z"/>
                        <path fill="#F2672A" d="M56.238 28.61c.834 0 1.51.674 1.51 1.519 0 .839-.672 1.52-1.51 1.52H35.98a1.51 1.51 0 0 1-1.51-1.52c0-.84.672-1.52 1.51-1.52h20.26z"/>
                        <path fill="#A0CB4E" d="M23.366 47.776l-4.659-3.893a1.335 1.335 0 1 1 1.701-2.06l2.432 2.06 3.567-5.15a1.323 1.323 0 0 1 2.175 1.504l-5.216 7.539zM23.366 61.875l-4.659-3.893a1.335 1.335 0 1 1 1.701-2.06l2.432 2.06 3.567-5.15a1.323 1.323 0 0 1 2.175 1.504l-5.216 7.539z"/>
                    </g>
                    <path fill="#2F3A5B" d="M63.399 109.32H49.814a1.546 1.546 0 0 1-1.37-2.213c.226-.495 2.143-4.903-2.062-6.86a1.544 1.544 0 0 1 1.32-2.79 7.284 7.284 0 0 1 3.978 4.12c.49 1.489.564 3.084.216 4.613H63.39a1.545 1.545 0 1 1 0 3.09l.01.04zM38.91 109.32H22.675a1.545 1.545 0 1 1 0-3.089h16.233a1.545 1.545 0 1 1 0 3.09zM67.243 109.31a1.474 1.474 0 0 1-1.093-.453 1.637 1.637 0 0 1-.34-.494 1.657 1.657 0 0 1-.113-.597c.002-.41.165-.802.454-1.092a1.599 1.599 0 0 1 2.185 0 1.565 1.565 0 0 1 .34 1.689 1.648 1.648 0 0 1-.34.494 1.526 1.526 0 0 1-1.093.453z"/>
                    <path fill="#FCD8C4" d="M9.503 97.423c0-5.914 4.796-10.708 10.714-10.708h.063c5.917 0 10.713 4.805 10.713 10.708v1.911c0 5.914-4.796 10.708-10.713 10.708h-.063c-5.917 0-10.714-4.805-10.714-10.708v-1.911z"/>
                    <g transform="translate(57.72 186.407)">
                        <path fill="#81AA29" d="M17.646 28.455C2.309 22.812 3.463 6.828 3.515 6.2c.618-.165 16.213-4.264 24.644 9.64 4.34 7.095-2.886 15.427-10.513 12.615z"/>
                        <path fill="#A0CB4E" d="M14.43 35.634C-.907 29.99.247 14.006.299 13.378c.618-.165 16.213-4.264 24.644 9.64 4.39 7.085-2.834 15.417-10.513 12.616z"/>
                        <path fill="#A0CB4E" d="M25.15 24.717C9.811 19.073 10.966 3.09 11.017 2.46c.619-.164 16.213-4.263 24.644 9.64 4.34 7.085-2.885 15.417-10.513 12.616z"/>
                        <path fill="#81AA29" d="M38.778 41.722l6.672-8.438 14.568 11.508-6.672 8.437zM24.18 33.625C8.843 27.982 9.998 11.998 10.05 11.37c.618-.165 16.212-4.264 24.644 9.64 4.339 7.085-2.886 15.417-10.514 12.615z"/>
                        <path fill="#81AA29" d="M34.353 23.903C19.614 16.54 22.84 1.081 23.016.473c.639-.092 16.893-2.203 23.613 12.36 3.412 7.476-4.947 14.726-12.276 11.07zM27.468 32.595C16.893 19.97 2.588 26.674 2.03 26.941c.062.65 1.763 16.942 17.523 20.093 8.039 1.648 13.172-8.156 7.915-14.439z"/>
                        <path fill="#A0CB4E" d="M32.25 39.187c-14.305-5.48-21.015 7.363-21.273 7.878.381.515 10.307 13.553 23.263 8.383 6.648-2.616 5.123-13.532-1.99-16.261zM41.713 27.22c-8.638-12.637 2.319-22.132 2.762-22.503.598.257 15.574 6.848 13.533 20.68-1.01 7.065-11.987 8.105-16.295 1.822z"/>
                        <ellipse cx="40.95" cy="36.181" fill="#A0CB4E" rx="24.172" ry="11.137" transform="rotate(-51.68 40.95 36.181)"/>
                        <path fill="#B2DE5D" d="M43.073 39.001c-15.058-6.53-12.842-22.276-12.75-22.894.63-.123 16.595-3.223 24.17 11.061 3.886 7.291-3.937 15.057-11.42 11.833z"/>
                        <path fill="#B2DE5D" d="M35.23 51.02C19.635 46.52 19.46 30.34 19.46 29.7c.587-.216 15.636-5.55 25.108 7.807 4.906 6.776-1.587 15.747-9.338 13.512z"/>
                    </g>
                    <path fill="#81AA29" d="M105.678 225.449c-1.03-5.942 4.33-8.507 4.536-8.61.164.165 4.339 4.408 1.432 9.66a3.227 3.227 0 0 1-5.968-1.05zM103.236 229.26c-5.958-.917-8.452 4.448-8.545 4.665.165.164 4.473 4.274 9.689 1.287a3.223 3.223 0 0 0-1.144-5.953z"/>
                    <path fill="#81AA29" d="M108.492 226.396c-3.556-4.87-9.111-2.842-9.338-2.76 0 .237.124 6.18 5.916 7.766a3.227 3.227 0 0 0 3.468-1.304c.766-1.12.748-2.6-.046-3.702z"/>
                    <path fill="#B2DE5D" d="M111.13 205.212a1.546 1.546 0 0 1-1.4-.886c-1.836-3.893-3.516-5.15-6.185-6.179a1.544 1.544 0 0 1 1.134-2.873c3.164 1.246 5.586 2.976 7.823 7.734a1.544 1.544 0 0 1-1.402 2.204h.03z"/>
                    <path fill="#CAEF70" d="M107.194 213.935a1.546 1.546 0 0 1-1.289-.7c-2.35-3.574-5.411-4.522-6.7-4.522a1.545 1.545 0 1 1 0-3.09c2.68 0 6.597 1.824 9.277 5.912a1.544 1.544 0 0 1-1.288 2.39v.01z"/>
                    <path fill="#A0CB4E" d="M94.753 196.16a1.547 1.547 0 0 1-.938-.31 19.067 19.067 0 0 0-9.194-3.542 1.563 1.563 0 1 1 .464-3.09c3.83.43 7.482 1.85 10.596 4.12a1.544 1.544 0 0 1-.938 2.77l.01.051z"/>
                    <path fill="#B2DE5D" d="M75.53 192.318c-.2 0-.4-.04-.587-.113a1.68 1.68 0 0 1-.505-.34 1.421 1.421 0 0 1-.33-.495 1.472 1.472 0 0 1-.124-.597c.003-.409.166-.8.454-1.092.071-.07.15-.133.237-.185a1.33 1.33 0 0 1 .268-.144c.092-.041.19-.072.288-.093a1.506 1.506 0 0 1 1.165.237c.083.053.159.115.227.185.07.075.136.154.196.237.054.086.102.176.144.268.034.094.062.19.082.288.01.1.01.2 0 .3 0 .204-.039.406-.113.596a1.65 1.65 0 0 1-.835.834c-.181.07-.373.109-.567.114z"/>
                    <path fill="#638412" d="M70.995 227.87a1.537 1.537 0 0 1-.907-.269 21.741 21.741 0 0 1-7.607-10.628 1.545 1.545 0 0 1 1.826-1.96c.539.124.97.526 1.133 1.054a18.806 18.806 0 0 0 6.462 9.032 1.544 1.544 0 0 1-.907 2.801v-.03z"/>
                    <path fill="#81AA29" d="M86.054 241.196c-6.772 0-11.493-4.336-12.905-5.83a1.585 1.585 0 0 1 0-2.203 1.516 1.516 0 0 1 2.144 0l.083.092c1.36 1.422 6.308 5.963 13.213 4.614a1.547 1.547 0 0 1 1.826 2.022 1.546 1.546 0 0 1-1.228 1.006c-1.032.2-2.082.3-3.133.299z"/>
                    <g>
                        <path fill="#FCCC2F" d="M178.086 204.11c-2.618-2.06-4.937-13.862-9.328-15.386a9.851 9.851 0 0 0-4.577-.196 9.851 9.851 0 0 0-4.576.196c-4.39 1.534-6.71 13.388-9.328 15.386-7.215 3.47-8.668 10.927-8.668 18.126 0 8.043 5.514 15.139 12.245 19.33 3.298 2.06 6.431 1.03 10.307.639 3.896.432 7.03 1.421 10.307-.639 6.73-4.191 12.245-11.328 12.245-19.33.04-7.2-1.371-14.655-8.627-18.126z"/>
                        <path fill="#A0CB4E" d="M172.83 176.86a8.252 8.252 0 0 0-5.35.422c-5.649 2.42-4.185 8.785-4.123 9.032.247.062 6.627 1.524 9.04-4.12a8.12 8.12 0 0 0 .432-5.334z"/>
                        <path fill="#FFE67B" d="M181.487 219.177a1.546 1.546 0 0 1-1.546-1.442c-.433-6.776-7.617-8.99-7.916-9.083l-.732-.217-.268-.72-4.978-13.327a1.547 1.547 0 0 1 2.896-1.03l4.71 12.616c2.289.875 8.885 4.037 9.37 11.586a1.545 1.545 0 0 1-1.443 1.638l-.093-.021zM181.724 223.338a1.556 1.556 0 1 1 1.546-1.566 1.544 1.544 0 0 1-1.546 1.566z"/>
                        <path fill="#81AA29" d="M166.088 185.15c-.41 0-.803-.163-1.092-.453a1.668 1.668 0 0 1-.34-.505 1.42 1.42 0 0 1-.114-.587c.003-.409.166-.8.454-1.091l.226-.196c.173-.104.36-.18.557-.227a1.506 1.506 0 0 1 .897.093c.094.034.184.079.268.134a1.565 1.565 0 0 1 .69 1.287c0 .201-.039.4-.113.587a1.567 1.567 0 0 1-1.433.958z"/>
                        <path fill="#E8AE0A" d="M159.213 239.805a1.527 1.527 0 0 1-.453-.072 16.488 16.488 0 0 1-10.369-8.445 15.624 15.624 0 0 1-1.65-5.88 1.546 1.546 0 0 1 3.093-.114c0 .371.474 8.641 9.823 11.483a1.545 1.545 0 0 1-.454 3.018l.01.01z"/>
                    </g>
                    <g>
                        <path fill="#A0CB4E" d="M208.378 217.498c-3.886-1.349-7.493 0-11.966 0h-.433c-4.474 0-8.081-1.39-11.967 0-7.06 2.462-8.37 8.919-8.37 15.15 0 6.467 4.433 12.162 9.844 15.53 3.247 2.06 6.287.381 10.493.381h.433c4.215 0 7.215 1.638 10.492-.38 5.411-3.369 9.844-9.064 9.844-15.531 0-6.22-1.33-12.688-8.37-15.15z"/>
                        <path fill="#81AA29" d="M184.816 200.567a11.233 11.233 0 0 1 7.329.577c7.74 3.316 5.73 12.04 5.637 12.358-.34.083-9.07 2.06-12.368-5.633a11.125 11.125 0 0 1-.598-7.302z"/>
                        <path fill="#B2DE5D" d="M211.955 230.64a1.546 1.546 0 0 1-1.526-1.319c-.876-5.922-5.679-6.436-8.462-6.179h-.237a1.547 1.547 0 0 1-1.385-2.29 1.547 1.547 0 0 1 1.323-.8c5.05-.391 10.771 1.73 11.822 8.847a1.544 1.544 0 0 1-1.309 1.75l-.226-.01zM194.752 211.36c-.41 0-.803-.163-1.092-.453a1.679 1.679 0 0 1-.34-.505 1.544 1.544 0 0 1 .34-1.679 1.599 1.599 0 0 1 2.185 0c.29.29.453.683.453 1.092.001.203-.041.403-.123.587a1.463 1.463 0 0 1-.835.835 1.434 1.434 0 0 1-.588.123z"/>
                        <path fill="#81AA29" d="M191.804 246.829a1.527 1.527 0 0 1-.453-.072 16.488 16.488 0 0 1-10.37-8.445 15.624 15.624 0 0 1-1.648-5.88 1.546 1.546 0 0 1 3.092-.114c0 .37.474 8.64 9.833 11.483a1.545 1.545 0 0 1-.454 3.018v.01z"/>
                    </g>
                    <g>
                        <path fill="#FFF" d="M205.709 113.131h-66.563l-13.276-12.358a1.764 1.764 0 0 0-2.938 1.524l1.495 10.834h-6.926c-6.875 0-12.493 6.396-12.493 14.212 0 7.817 5.618 14.213 12.493 14.213h88.166c6.875 0 12.493-6.396 12.493-14.213 0-7.816-5.587-14.212-12.451-14.212z"/>
                        <path fill="#DDE1ED" d="M205.709 143.1H117.5c-7.74 0-14.039-7.064-14.039-15.757 0-8.692 6.298-15.746 14.039-15.746h5.153l-1.257-9.073a3.305 3.305 0 0 1 1.75-3.379 3.31 3.31 0 0 1 3.774.505l12.833 11.947h65.965c7.74 0 14.038 7.065 14.038 15.746 0 8.682-6.308 15.757-14.048 15.757zM117.5 114.676c-6.04 0-10.946 5.685-10.946 12.657s4.906 12.668 10.946 12.668h88.166c6.04 0 10.947-5.685 10.947-12.668 0-6.982-4.907-12.657-10.947-12.657h-67.202l-13.677-12.719a.186.186 0 0 0-.248 0 .185.185 0 0 0-.113.216l1.742 12.585-8.668-.082z"/>
                    </g>
                    <path fill="#BFC3D4" d="M130.77 122.678c.834 0 1.51.674 1.51 1.52 0 .838-.674 1.519-1.51 1.519h-6.78a1.51 1.51 0 0 1-1.51-1.52c0-.839.674-1.52 1.51-1.52h6.78zM159.04 122.678c.834 0 1.51.674 1.51 1.52 0 .838-.669 1.519-1.51 1.519h-22.978c-.834 0-1.51-.675-1.51-1.52 0-.839.669-1.52 1.51-1.52h22.978zM182.773 122.678c.837 0 1.515.674 1.515 1.52 0 .838-.685 1.519-1.515 1.519h-17.569a1.513 1.513 0 0 1-1.515-1.52c0-.839.686-1.52 1.515-1.52h17.57zM200.262 122.688a1.51 1.51 0 0 1 1.507 1.52c0 .839-.682 1.519-1.507 1.519h-12.411a1.51 1.51 0 0 1-1.507-1.52c0-.839.682-1.519 1.507-1.519h12.411zM144.627 132.164c-.84 0-1.52-.675-1.52-1.52 0-.839.675-1.52 1.52-1.52h21.267c.84 0 1.52.675 1.52 1.52 0 .84-.675 1.52-1.52 1.52h-21.267zM123.987 132.153a1.509 1.509 0 0 1-1.506-1.52c0-.838.67-1.519 1.506-1.519h15.197c.831 0 1.505.675 1.505 1.52 0 .84-.67 1.52-1.505 1.52h-15.197z"/>
                </g>
            </g>
        </g>
    </g>
</svg>
