<svg xmlns="http://www.w3.org/2000/svg" xmlns:xlink="http://www.w3.org/1999/xlink" width="481" height="452" viewBox="0 0 481 452">
    <defs>
        <path id="b" d="M237.984 441.768l-74.512.232a60.73 60.73 0 0 1-52.84-30.463l-37.015-64.389-37.335-64.04a60.73 60.73 0 0 1 .003-61.177l37.348-64.05 37.035-64.41a60.73 60.73 0 0 1 52.826-30.458l74.522.219L312.528 63a60.73 60.73 0 0 1 52.84 30.463l37.015 64.389 37.335 64.04a60.73 60.73 0 0 1-.003 61.177l-37.348 64.05-37.035 64.41a60.73 60.73 0 0 1-52.826 30.458l-74.522-.219z"/>
        <filter id="a" width="122.8%" height="125.3%" x="-11.4%" y="-12.7%" filterUnits="objectBoundingBox">
            <feMorphology in="SourceAlpha" operator="dilate" radius="2.5" result="shadowSpreadOuter1"/>
            <feOffset in="shadowSpreadOuter1" result="shadowOffsetOuter1"/>
            <feGaussianBlur in="shadowOffsetOuter1" result="shadowBlurOuter1" stdDeviation="13.5"/>
            <feColorMatrix in="shadowBlurOuter1" values="0 0 0 0 0 0 0 0 0 0 0 0 0 0 0 0 0 0 0.01 0"/>
        </filter>
        <path id="c" d="M0 0h274.286v274.133H0z"/>
    </defs>
    <g fill="none" fill-rule="evenodd">
        <g transform="rotate(56 263.95 242.321)">
            <use fill="#000" filter="url(#a)" xlink:href="#b"/>
            <use fill="#FFF" xlink:href="#b"/>
        </g>
        <g transform="scale(-1 1) rotate(-1 5571.294 21844.789)">
            <mask id="d" fill="#fff">
                <use xlink:href="#c"/>
            </mask>
            <g mask="url(#d)">
                <g fill-rule="nonzero" transform="translate(131.592 40.315)">
                    <ellipse cx="37.525" cy="93.483" fill="#E9E9ED" rx="21.667" ry="3.12"/>
                    <g>
                        <path fill="#BFC3D4" d="M57.74 71.892H17.199c-5.634 0 2.627-10.184 2.627-15.804L7.8 15.351C5.995 9.249 10.16 2.805 16.496 2.389h41.243a9.925 9.925 0 0 1 7.958 3.923 9.94 9.94 0 0 1 1.646 8.724L56.435 58.069c0 5.639 6.94 13.823 1.305 13.823zM17.199 9.184a3.274 3.274 0 0 0-3.118 4.37l4.302 14.222c0 1.851-3.062 37.293-1.184 37.293h40.54c1.851 0-.758-35.182-.758-37.034l3.923-14.564a3.298 3.298 0 0 0-3.164-4.296l-40.541.01z"/>
                        <path fill="#9DA4C1" d="M74.55 59.597a37.046 37.046 0 0 1-12.628 27.896c-6.532 5.74-11.398 6.777-24.453 6.777-12.619 0-19.021-1.5-25.682-7.907C-.387 74.665-3.131 56.216 5.11 41.477c8.242-14.74 25.39-22.05 41.72-17.786 16.33 4.263 27.724 19.025 27.72 35.915v-.009z"/>
                        <path fill="#878DA8" d="M57.527 61.921h-.055a1.387 1.387 0 0 1-1.333-1.444v-.778c.002-8.727-6.025-16.296-14.526-18.243a18.694 18.694 0 0 0-21.01 10.105 1.388 1.388 0 1 1-2.497-1.213c4.355-9.025 14.366-13.838 24.128-11.601 9.763 2.237 16.683 10.93 16.68 20.952v.926a1.388 1.388 0 0 1-1.387 1.296z"/>
                        <path fill="#DADFED" d="M37.47 82.845c-11.856-.01-21.464-9.625-21.474-21.489v-.926a1.37 1.37 0 0 1 1.443-1.324c.764.035 1.355.681 1.323 1.445v.768c.004 8.636 5.913 16.148 14.3 18.18a18.693 18.693 0 0 0 21.023-9.625 1.39 1.39 0 1 1 2.47 1.278A21.407 21.407 0 0 1 37.47 82.845z"/>
                        <rect width="35.277" height="11.082" x="19.826" y=".241" fill="#F15922" rx="5.517"/>
                    </g>
                    <path fill="#FF8848" d="M44.593 5.324H26.59a1.388 1.388 0 0 1 0-2.778h18.004a1.388 1.388 0 0 1 0 2.778zM48.979 5.324c-.09.009-.18.009-.269 0a1.23 1.23 0 0 1-.259-.084 1.193 1.193 0 0 1-.24-.12 1.39 1.39 0 0 1 0-2.315c.075-.049.156-.09.24-.12a1.23 1.23 0 0 1 .26-.083c.453-.092.922.051 1.248.38a1.39 1.39 0 0 1 0 1.962c-.264.25-.617.387-.98.38z"/>
                    <path fill="#FFF" d="M63.837 10.462a1.388 1.388 0 0 1-1.268-.815 4.905 4.905 0 0 0-2.951-2.685 1.388 1.388 0 1 1 .925-2.61 7.755 7.755 0 0 1 4.533 4.147 1.39 1.39 0 0 1-1.24 1.963z"/>
                    <path fill="#878DA8" d="M36.183 92.78H34.99A31.539 31.539 0 0 1 5.84 73.29a31.58 31.58 0 0 1 6.853-34.404 1.387 1.387 0 0 1 1.962 1.963 28.8 28.8 0 0 0-6.229 31.373 28.763 28.763 0 0 0 26.582 17.762h.574c6.125 0 14.451 0 18.762-2.908a1.391 1.391 0 0 1 1.554 2.305c-4.875 3.297-13.34 3.399-19.715 3.399z"/>
                    <ellipse cx="37.201" cy="60.597" fill="#878DA8" rx="10.612" ry="10.62"/>
                </g>
            </g>
            <g mask="url(#d)">
                <g fill-rule="nonzero" transform="translate(178.776 55.128)">
                    <ellipse cx="46.49" cy="120.731" fill="#E9E9ED" rx="45.851" ry="3.12"/>
                    <path fill="#BFC3D4" d="M3.645 18.622a7.828 7.828 0 0 1 7.834-7.827h69.013c4.327 0 7.834 3.5 7.834 7.827v92.273a7.828 7.828 0 0 1-7.834 7.827H11.48a7.827 7.827 0 0 1-7.834-7.827V18.622z"/>
                    <g transform="translate(2.776)">
                        <path fill="#878DA8" d="M.87 20.863a7.828 7.828 0 0 1 7.833-7.827h69.014c4.326 0 7.833 3.499 7.833 7.827v92.273a7.828 7.828 0 0 1-7.833 7.827H8.703a7.827 7.827 0 0 1-7.833-7.827V20.863z"/>
                        <path fill="#BFC3D4" d="M78.399 118.722H8.03c-1.899 0-3.72-.755-5.063-2.099a7.169 7.169 0 0 1-2.097-5.067V17.962a7.163 7.163 0 0 1 7.16-7.167H78.4a7.163 7.163 0 0 1 7.16 7.167v93.603a7.163 7.163 0 0 1-7.16 7.157z"/>
                        <rect width="67.667" height="96.298" x="9.381" y="17.036" fill="#878DA8" rx="2.805"/>
                        <rect width="67.667" height="96.298" x="9.381" y="14.619" fill="#FFF" rx="2.805"/>
                        <path fill="#E9E9ED" d="M17.939 10.397h50.524V14.5a6.21 6.21 0 0 1-6.208 6.212H24.147a6.21 6.21 0 0 1-6.208-6.212v-4.102z"/>
                        <path fill="#1C2444" d="M17.939 8.25h50.524v4.1a6.21 6.21 0 0 1-6.208 6.213H24.147a6.21 6.21 0 0 1-6.208-6.212V8.249z"/>
                        <ellipse cx="43.215" cy="8.249" fill="#1C2444" rx="7.633" ry="7.638"/>
                        <ellipse cx="43.215" cy="8.249" fill="#FFF" rx="2.701" ry="2.703"/>
                        <ellipse cx="22.232" cy="69.707" fill="#FFD766" rx="2.701" ry="2.703"/>
                        <ellipse cx="22.232" cy="83.262" fill="#FFD766" rx="2.701" ry="2.703"/>
                        <path fill="#68739B" d="M40.416 40.536c.803 0 1.454.648 1.454 1.46 0 .808-.649 1.462-1.454 1.462h-6.531a1.454 1.454 0 0 1-1.455-1.461c0-.807.65-1.461 1.455-1.461h6.53zM67.616 40.536c.804 0 1.455.648 1.455 1.46 0 .808-.644 1.462-1.455 1.462h-22.13a1.454 1.454 0 0 1-1.455-1.461c0-.807.644-1.461 1.455-1.461h22.13zM50.798 54.423c.806 0 1.46.649 1.46 1.461 0 .807-.661 1.461-1.46 1.461H33.873c-.805 0-1.459-.648-1.459-1.46 0-.807.66-1.462 1.46-1.462h16.924zM67.6 54.414a1.46 1.46 0 0 1 1.464 1.461c0 .807-.657 1.461-1.464 1.461H55.68a1.46 1.46 0 0 1-1.465-1.46c0-.808.657-1.462 1.464-1.462H67.6zM50.684 84.723c-.806 0-1.46-.649-1.46-1.461 0-.807.66-1.461 1.46-1.461h16.924c.806 0 1.46.648 1.46 1.46 0 .808-.66 1.462-1.46 1.462H50.684zM33.882 84.714a1.46 1.46 0 0 1-1.464-1.461c0-.807.657-1.461 1.464-1.461h11.92a1.46 1.46 0 0 1 1.465 1.46c0 .807-.657 1.462-1.464 1.462h-11.92zM39.93 68.246c.805 0 1.459.649 1.459 1.461 0 .807-.645 1.461-1.46 1.461h-6.04c-.805 0-1.458-.648-1.458-1.46 0-.807.644-1.462 1.459-1.462h6.04zM47.536 68.246c.804 0 1.455.649 1.455 1.461 0 .807-.648 1.461-1.455 1.461h-2.74a1.455 1.455 0 0 1-1.455-1.46c0-.807.648-1.462 1.455-1.462h2.74zM67.61 68.246c.804 0 1.456.649 1.456 1.461 0 .807-.66 1.461-1.456 1.461H52.542a1.455 1.455 0 0 1-1.456-1.46c0-.807.66-1.462 1.456-1.462H67.61z"/>
                        <path fill="#F15922" d="M54.154 28.092c.803 0 1.454.649 1.454 1.461 0 .807-.647 1.461-1.454 1.461h-19.52a1.454 1.454 0 0 1-1.453-1.46c0-.808.647-1.462 1.454-1.462h19.519z"/>
                        <path fill="#A0CB4E" d="M22.528 47.543l-4.478-3.75a1.278 1.278 0 0 1 1.638-1.954l2.34 1.963 3.433-4.963a1.276 1.276 0 0 1 2.09 1.454l-5.023 7.25zM22.528 61.106l-4.487-3.703a1.278 1.278 0 0 1 1.637-1.954l2.341 1.954 3.432-4.963a1.276 1.276 0 0 1 2.091 1.454l-5.014 7.212z"/>
                    </g>
                    <path fill="#2F3A5B" d="M63.837 13.48h-13.1a1.388 1.388 0 0 1-1.25-1.99c.222-.482 2.1-4.815-1.98-6.74a1.39 1.39 0 0 1 1.185-2.51 6.914 6.914 0 0 1 3.774 3.954 8.283 8.283 0 0 1 .176 4.509h11.195a1.388 1.388 0 0 1 0 2.777zM40.254 13.48H24.647a1.388 1.388 0 0 1 0-2.777h15.607a1.388 1.388 0 0 1 0 2.777zM67.537 13.48h-.268a1.498 1.498 0 0 1-.5-.213 1.221 1.221 0 0 1-.212-.166 1.399 1.399 0 0 1-.407-.982 1.37 1.37 0 0 1 .407-.981c.064-.066.135-.125.213-.176l.24-.13a1.387 1.387 0 0 1 1.453.278 1.388 1.388 0 0 1-.98 2.37h.054z"/>
                </g>
            </g>
            <g fill-rule="nonzero" mask="url(#d)">
                <path fill="#FF8848" d="M40.472 149.14H21.848a8.227 8.227 0 0 1-8.16-7.231l-7.3-60.18h49.173l-6.93 60.124a8.227 8.227 0 0 1-8.16 7.286zM16.954 60.276h11.444c.695 0 1.259.564 1.259 1.26v11.572H15.696V61.535c0-.695.563-1.259 1.258-1.259z"/>
                <path fill="#FF8848" d="M20.997 64.489h19.928c8.068 0 14.609 6.545 14.609 14.619v2.61H6.389v-2.61c0-8.074 6.54-14.62 14.608-14.62z"/>
                <path fill="#F2672A" d="M16.87 136.372c-.698 0-1.29-.519-1.378-1.213L9.016 83.895a1.4 1.4 0 1 1 2.776-.352l6.476 51.264a1.39 1.39 0 0 1-1.203 1.556l-.194.009z"/>
                <path fill="#F15922" d="M4.039 82.59a2.305 2.305 0 0 1 2.314-2.306h49.243a2.305 2.305 0 1 1 0 4.61H6.353A2.304 2.304 0 0 1 4.04 82.59z"/>
                <path fill="#F2672A" d="M9.83 79.358h-.166a1.389 1.389 0 0 1-1.222-1.537 12.285 12.285 0 0 1 7.402-10.184 1.388 1.388 0 0 1 .925 2.601 9.527 9.527 0 0 0-5.551 7.88 1.388 1.388 0 0 1-1.388 1.24z"/>
            </g>
            <g mask="url(#d)">
                <g fill-rule="nonzero" transform="translate(41.85 31.982)">
                    <path fill="#9DA4C1" d="M31.872 112.88a6.668 6.668 0 0 0 2.34-5.074v-5.786l.26-55.672a2.777 2.777 0 0 0-2.415-2.777h-.444a2.777 2.777 0 0 1-2.683-2.778v-1.972a2.777 2.777 0 0 1 2.776-2.778 2.777 2.777 0 0 0 2.775-2.777v-9.972c0-6.25-3.7-10.767-8.937-12.86a6.479 6.479 0 0 0-5.736-5.851V3.296h.296a1.56 1.56 0 0 0 0-3.12h-4.876a1.56 1.56 0 0 0 0 3.12h.296v1.287a6.479 6.479 0 0 0-5.736 5.833A13.128 13.128 0 0 0 1.12 22.998v10.036a2.777 2.777 0 0 0 2.776 2.778h.092a2.776 2.776 0 0 1 2.776 2.389 2.78 2.78 0 0 1 0 .305l.074 2.074a2.779 2.779 0 0 1-2.776 2.88h-.166c-.212 0-.423.025-.63.074v.055-.074a2.777 2.777 0 0 0-2.155 2.704v61.569a6.677 6.677 0 0 0 2.489 5.166c-1.749.333-2.776.731-2.776 1.148 0 1.176 7.726 2.12 17.255 2.12 9.53 0 17.254-.926 17.254-2.12 0-.435-1.295-.87-3.46-1.222z"/>
                    <ellipse cx="18.078" cy="114.148" fill="#E9E9ED" rx="17.254" ry="2.12"/>
                    <path fill="#1C2444" d="M15.534 1.102h4.274V6.99h-4.274z"/>
                    <path fill="#1C2444" d="M16.283 4.527h2.776a6.479 6.479 0 0 1 6.476 6.481v2.648H9.76v-2.648c0-1.727.688-3.382 1.913-4.599a6.474 6.474 0 0 1 4.609-1.882zM13.674 1.736c0-.862.695-1.56 1.56-1.56h4.873c.862 0 1.56.692 1.56 1.56 0 .862-.695 1.56-1.56 1.56h-4.873c-.861 0-1.56-.692-1.56-1.56z"/>
                    <path fill="#9DA4C1" d="M3.275 43.515a2.777 2.777 0 0 0-2.156 2.704v61.569a6.682 6.682 0 0 0 6.68 6.684h19.725c3.689 0 6.68-2.992 6.68-6.684V102l.259-55.671a2.777 2.777 0 0 0-2.415-2.778H3.275v-.037zM34.481 33.22v-9.926c0-8.74-7.142-14.119-15.885-14.174h-1.702c-8.67-.047-15.728 5.194-15.728 13.887v10.037a2.777 2.777 0 0 0 2.165 2.712h29.605a2.778 2.778 0 0 0 1.545-2.536z"/>
                    <g fill="#878DA8">
                        <path d="M6.781 38.497l.075 2.074a2.779 2.779 0 0 1-2.776 2.88h-.167c-.211 0-.422.025-.629.073v.056h28.773-.444a2.777 2.777 0 0 1-2.683-2.778V38.83c0-.199.022-.398.065-.592H6.79a2.78 2.78 0 0 1-.01.259zM31.696 35.997a2.774 2.774 0 0 0 1.175-.268H3.266c.203.048.411.072.62.074h.092a2.776 2.776 0 0 1 2.776 2.388h22.204a2.776 2.776 0 0 1 2.738-2.194z"/>
                    </g>
                    <path fill="#68739B" d="M31.696 35.997a2.774 2.774 0 0 0 1.175-.268H3.266c.203.048.411.072.62.074h.092a2.776 2.776 0 0 1 2.776 2.388h22.204a2.776 2.776 0 0 1 2.738-2.194z"/>
                    <path fill="#BFC3D4" d="M29.985 19.063a1.388 1.388 0 0 1-1.268-.814 4.914 4.914 0 0 0-2.951-2.685 1.388 1.388 0 1 1 .925-2.611 7.746 7.746 0 0 1 4.533 4.147 1.39 1.39 0 0 1-1.267 1.963h.028zM30.984 92.456a1.388 1.388 0 0 1-1.388-1.39V49.94c0-.98-.788-1.776-1.767-1.786a1.388 1.388 0 0 1 0-2.778 4.572 4.572 0 0 1 4.524 4.564v41.136a1.388 1.388 0 0 1-1.37 1.38z"/>
                    <path fill="#878DA8" d="M4.7 34.405a1.388 1.388 0 0 1-1.388-1.39V18.73a1.388 1.388 0 1 1 2.776 0v14.286c0 .767-.622 1.389-1.388 1.389zM4.7 104.39A1.388 1.388 0 0 1 3.312 103V46.524a1.388 1.388 0 1 1 2.776 0v56.477c0 .767-.622 1.389-1.388 1.389z"/>
                </g>
            </g>
            <g mask="url(#d)">
                <g fill-rule="nonzero" transform="translate(2.993 122.716)">
                    <ellipse cx="34.518" cy="52.746" fill="#E9E9ED" rx="21.667" ry="3.12"/>
                    <path fill="#81AA29" d="M16.847 27.294C2.1 21.86 3.21 6.481 3.257 5.861c.592-.158 15.589-4.111 23.702 9.258 4.173 6.851-2.784 14.879-10.112 12.175z"/>
                    <path fill="#A0CB4E" d="M13.794 34.201C-.926 28.766.167 13.379.213 12.768c.592-.158 15.589-4.111 23.703 9.258 4.163 6.851-2.785 14.878-10.122 12.175z"/>
                    <path fill="#A0CB4E" d="M24.054 23.683C9.307 18.25 10.417 2.861 10.473 2.25c.592-.158 15.589-4.111 23.703 9.258 4.163 6.852-2.785 14.879-10.122 12.175z"/>
                    <path fill="#81AA29" d="M37.16 40.062l6.414-8.11L57.61 43.037l-6.414 8.11zM23.13 32.266C8.39 26.85 9.5 11.444 9.547 10.832c.592-.157 15.589-4.11 23.703 9.259 4.163 6.851-2.785 14.878-10.122 12.175z"/>
                    <path fill="#81AA29" d="M32.908 22.906C18.735 15.814 21.806.926 21.964.343c.62-.084 16.246-2.12 22.703 11.934 3.33 7.166-4.709 14.156-11.759 10.629zM26.293 31.275C16.116 19.12 2.368 25.572 1.832 25.831c.055.62 1.693 16.314 16.847 19.35 7.735 1.584 12.666-7.86 7.614-13.906z"/>
                    <path fill="#A0CB4E" d="M30.882 37.627c-13.757-5.278-20.206 7.092-20.455 7.592.37.5 9.871 13.054 22.37 8.073 6.393-2.528 4.931-13.036-1.915-15.665zM39.995 26.1C31.67 13.925 42.225 4.805 42.65 4.426c.574.25 14.97 6.592 13.017 19.924-.98 6.805-11.546 7.805-15.672 1.75z"/>
                    <ellipse cx="37.273" cy="35.034" fill="#A0CB4E" rx="23.167" ry="10.686" transform="rotate(-51.52 37.273 35.034)"/>
                    <path fill="#B2DE5D" d="M41.29 37.45C26.83 31.156 28.94 16 29.032 15.398c.601-.12 15.959-3.102 23.24 10.656 3.738 7.018-3.775 14.527-10.982 11.398z"/>
                    <path fill="#B2DE5D" d="M33.75 49.024C18.762 44.69 18.587 29.109 18.587 28.488c.573-.212 15.043-5.342 24.147 7.518 4.672 6.583-1.527 15.175-8.984 13.018z"/>
                    <path fill="#81AA29" d="M46 37.488c-.926-5.722 4.163-8.194 4.366-8.333.158.157 4.173 4.24 1.379 9.259a3.099 3.099 0 0 1-5.746-.926zM43.64 41.163c-5.736-.925-8.123 4.287-8.215 4.49.166.158 4.302 4.12 9.316 1.241a3.102 3.102 0 0 0-1.1-5.73z"/>
                    <path fill="#81AA29" d="M48.701 38.404c-3.423-4.684-8.761-2.777-8.974-2.657 0 .222.12 5.953 5.69 7.481a3.098 3.098 0 0 0 3.336-1.257 3.103 3.103 0 0 0-.052-3.567z"/>
                    <path fill="#B2DE5D" d="M51.236 17.897a1.388 1.388 0 0 1-1.258-.797c-1.767-3.75-3.46-5-5.977-5.999a1.39 1.39 0 0 1 1.018-2.583c3.025 1.194 5.329 2.851 7.466 7.407a1.39 1.39 0 0 1-1.258 1.981l.009-.01z"/>
                    <path fill="#CAEF70" d="M47.396 26.294a1.387 1.387 0 0 1-1.156-.63c-2.285-3.444-5.264-4.37-6.522-4.37a1.388 1.388 0 0 1 0-2.777c2.553 0 6.281 1.75 8.844 5.648a1.39 1.39 0 0 1-1.156 2.148l-.01-.019z"/>
                    <path fill="#A0CB4E" d="M35.49 9.175c-.305 0-.601-.1-.842-.287a18.412 18.412 0 0 0-8.882-3.425 1.404 1.404 0 0 1 .416-2.778A21.27 21.27 0 0 1 36.36 6.648a1.39 1.39 0 0 1-.842 2.49l-.027.037z"/>
                    <path fill="#B2DE5D" d="M17.005 5.481c-.184 0-.366-.035-.537-.102a1.48 1.48 0 0 1-.74-.75 1.547 1.547 0 0 1-.102-.537 1.343 1.343 0 0 1 0-.268 1.223 1.223 0 0 1 .204-.5c.05-.077.11-.149.175-.213a1.433 1.433 0 0 1 1.962 0c.258.261.405.613.407.981 0 .185-.038.368-.111.537a1.287 1.287 0 0 1-.296.445 1.36 1.36 0 0 1-.962.407z"/>
                    <path fill="#638412" d="M12.638 39.71a1.378 1.378 0 0 1-.814-.26 20.831 20.831 0 0 1-7.281-10.184 1.39 1.39 0 0 1 1.638-1.761c.484.11.871.472 1.017.946a18.22 18.22 0 0 0 6.254 8.75 1.39 1.39 0 0 1-.814 2.518v-.01z"/>
                    <path fill="#81AA29" d="M27.117 52.551c-6.476 0-10.982-4.147-12.342-5.555a1.427 1.427 0 0 1 0-1.981 1.35 1.35 0 0 1 1.924 0l.084.083c1.313 1.38 6.115 5.787 12.795 4.472a1.387 1.387 0 0 1 1.638 1.818c-.172.481-.596.829-1.102.904-.988.183-1.992.27-2.997.26z"/>
                </g>
            </g>
            <g fill-rule="nonzero" mask="url(#d)">
                <g transform="translate(73.306 154.195)">
                    <ellipse cx="25.507" cy="40.562" fill="#E9E9ED" rx="25.072" ry="1.629"/>
                    <g transform="translate(15.728)">
                        <ellipse cx="20.974" cy="20.406" fill="#F15922" rx="20.344" ry="20.359"/>
                        <path fill="#D84512" d="M20.974 37.367a16.949 16.949 0 0 1-15.69-10.45A16.97 16.97 0 0 1 8.947 8.416a1.387 1.387 0 0 1 1.962 1.963c-5.137 5.17-5.52 13.395-.888 19.021 4.633 5.626 12.774 6.822 18.827 2.764A1.391 1.391 0 0 1 30.4 34.47a16.857 16.857 0 0 1-9.427 2.898z"/>
                    </g>
                    <path fill="#FF8848" d="M51.726 18.517a1.388 1.388 0 0 1-1.35-1.092C48.618 9.22 42.493 7.175 40.66 6.749a1.388 1.388 0 1 1 .63-2.703c4.625 1.083 10.12 5.009 11.795 12.795a1.389 1.389 0 0 1-1.064 1.648c-.097.02-.196.03-.296.028z"/>
                    <ellipse cx="43.002" cy="14.425" fill="#D84512" rx="1.86" ry="1.861"/>
                    <path fill="#FF8848" d="M51.578 27.127a1.387 1.387 0 0 1-1.332-1.796c.35-1.032.531-2.113.537-3.203a1.392 1.392 0 1 1 2.775-.204 12.248 12.248 0 0 1-.648 4.222c-.179.585-.72.984-1.332.981z"/>
                </g>
                <path fill="#F15922" d="M108.463 189.701c-8.008 7.568-20.58 7.389-28.368-.406-7.788-7.794-7.968-20.374-.405-28.388l28.773 28.794z"/>
                <path fill="#FCCC2F" d="M106.936 188.229a17.922 17.922 0 0 1-17.32 4.644 17.938 17.938 0 0 1-12.68-12.688 17.954 17.954 0 0 1 4.641-17.334l25.36 25.378z"/>
                <path fill="#FF8848" d="M88.627 187.618a4.577 4.577 0 0 1-6.476 0 4.585 4.585 0 0 1 0-6.481c1.776-1.778 10.408-3.972 10.408-3.972s-2.156 8.675-3.932 10.453zM98.813 187.951c0 2.519-2.04 4.56-4.556 4.56a4.558 4.558 0 0 1-4.557-4.56c0-2.518 4.552-10.184 4.552-10.184s4.561 7.666 4.561 10.184zM106.372 187.664a4.55 4.55 0 0 1-6.476 0c-1.777-1.777-3.97-10.416-3.97-10.416l10.446 10.416zM81.92 171.054a4.558 4.558 0 0 0-4.557 4.56c0 2.519 2.04 4.56 4.556 4.56 2.517 0 10.177-4.555 10.177-4.555s-7.688-4.565-10.177-4.565zM82.216 163.453a4.557 4.557 0 0 0 0 6.481c1.776 1.778 10.408 3.972 10.408 3.972l-10.408-10.453z"/>
            </g>
            <g fill-rule="nonzero" mask="url(#d)">
                <g transform="translate(126.966 158.824)">
                    <ellipse cx="63.217" cy="80.382" fill="#E9E9ED" rx="10.186" ry="2.12"/>
                    <ellipse cx="18.152" cy="80.382" fill="#E9E9ED" rx="10.186" ry="2.12"/>
                    <g transform="translate(0 33.33)">
                        <path fill="#1C2444" d="M23.953 19.637h36.766v8.249H23.953z"/>
                        <ellipse cx="76.974" cy="23.767" fill="#1C2444" rx="4.126" ry="4.129"/>
                        <path fill="#BFC3D4" d="M77.316 34.161a3.921 3.921 0 0 1-3.918 3.92 3.914 3.914 0 0 1-3.918-3.92v-20.78a3.921 3.921 0 0 1 3.918-3.919 3.914 3.914 0 0 1 3.918 3.92v20.78z"/>
                        <path fill="#878DA8" d="M69.545 40.715c0 3.494-2.842 6.328-6.333 6.328a6.336 6.336 0 0 1-6.333-6.328V6.809c0-3.494 2.843-6.328 6.333-6.328a6.336 6.336 0 0 1 6.333 6.328v33.906z"/>
                        <ellipse cx="4.385" cy="23.767" fill="#1C2444" rx="4.126" ry="4.129"/>
                        <rect width="7.836" height="28.618" x="4.043" y="9.453" fill="#BFC3D4" rx="3.918"/>
                        <rect width="12.666" height="46.561" x="11.814" y=".491" fill="#878DA8" rx="6.332"/>
                    </g>
                    <path fill="#FFF" d="M74.254 47.015a1.406 1.406 0 0 1-.98-.408 1.231 1.231 0 0 1-.297-.453 1.288 1.288 0 0 1-.11-.528c-.01-.09-.01-.18 0-.269.017-.089.045-.176.083-.259a.861.861 0 0 1 .13-.24c.044-.08.1-.151.166-.213a1.85 1.85 0 0 1 .213-.176l.24-.13.26-.074a1.35 1.35 0 0 1 .545 0l.259.074c.08.037.157.08.231.13a1.408 1.408 0 0 1 .62 1.157c.004.369-.143.724-.407.981-.253.254-.595.4-.953.408zM8.89 47.015c-.37 0-.726-.147-.989-.408a1.24 1.24 0 0 1-.296-.453 1.288 1.288 0 0 1-.111-.528c-.01-.09-.01-.18 0-.269.018-.089.045-.176.083-.259.034-.085.078-.165.13-.24a1.259 1.259 0 0 1 .62-.51 1.35 1.35 0 0 1 1.064 0c.084.03.165.071.24.12.074.052.142.11.204.177a1.39 1.39 0 0 1 .305 1.509 1.26 1.26 0 0 1-.305.453c-.126.129-.278.23-.445.297-.157.07-.327.107-.5.11z"/>
                    <path fill="#68739B" d="M72.848 69.819c-.18 0-.36-.035-.527-.102a1.499 1.499 0 0 1-.454-.306 1.472 1.472 0 0 1-.305-.444 1.538 1.538 0 0 1-.102-.537 1.353 1.353 0 0 1 0-.269c.018-.089.046-.176.083-.259.031-.085.072-.165.12-.24.054-.076.113-.147.176-.214.067-.063.139-.122.213-.176.075-.05.156-.09.24-.12a1.359 1.359 0 0 1 1.064 0c.083.03.16.07.232.12.077.052.148.11.213.176a2 2 0 0 1 .176.213c.048.077.092.158.13.241.029.085.054.171.073.26a1.39 1.39 0 0 1-1.36 1.657h.028z"/>
                    <path fill="#BFC3D4" d="M21.445 41.765a1.388 1.388 0 0 1-1.387-1.389 1.853 1.853 0 0 0-1.85-2.027 1.388 1.388 0 0 1 0-2.778 4.624 4.624 0 0 1 4.625 4.805c0 .767-.621 1.39-1.388 1.39z"/>
                    <path fill="#68739B" d="M18.143 78.697a4.624 4.624 0 0 1-4.626-4.805 1.388 1.388 0 1 1 2.775 0 1.853 1.853 0 0 0 1.85 2.028 1.388 1.388 0 0 1 0 2.777zM63.254 78.975a4.624 4.624 0 0 1-4.626-4.805 1.388 1.388 0 1 1 2.776 0 1.853 1.853 0 0 0 1.85 2.028 1.388 1.388 0 0 1 0 2.777z"/>
                    <path fill="#2F3A5B" d="M54.252 57.097H26.728a1.388 1.388 0 0 1 0-2.777h27.524a1.388 1.388 0 0 1 0 2.777z"/>
                    <ellipse cx="111.946" cy="69.643" fill="#E9E9ED" rx="17.513" ry="2.12"/>
                    <g transform="translate(62.912)">
                        <path fill="#1C2444" d="M26.149 23.3l29.669 21.703-4.875 6.657-29.669-21.703z"/>
                        <ellipse cx="66.536" cy="58.01" fill="#1C2444" rx="4.125" ry="4.131" transform="rotate(-53.8 66.536 58.01)"/>
                        <path fill="#BFC3D4" d="M60.734 66.552a3.924 3.924 0 0 1-5.478.85 3.911 3.911 0 0 1-.845-5.476l12.28-16.768a3.924 3.924 0 0 1 5.477-.85 3.911 3.911 0 0 1 .846 5.475l-12.28 16.769z"/>
                        <path fill="#878DA8" d="M50.584 67.25a6.339 6.339 0 0 1-8.85 1.37 6.332 6.332 0 0 1-1.37-8.845L60.4 32.415a6.339 6.339 0 0 1 8.85-1.369 6.332 6.332 0 0 1 1.37 8.845L50.584 67.25z"/>
                        <ellipse cx="7.966" cy="15.102" fill="#1C2444" rx="4.125" ry="4.131" transform="rotate(-53.8 7.966 15.102)"/>
                        <path fill="#BFC3D4" d="M14.754 7.692a3.932 3.932 0 0 1 5.487-.864 3.92 3.92 0 0 1 .86 5.485L8.834 29.144a3.932 3.932 0 0 1-5.487.864 3.92 3.92 0 0 1-.86-5.484L14.754 7.692z"/>
                        <path fill="#878DA8" d="M23.946 5.774a6.339 6.339 0 0 1 8.85-1.369 6.332 6.332 0 0 1 1.37 8.845L14.13 40.61a6.339 6.339 0 0 1-8.85 1.368 6.332 6.332 0 0 1-1.37-8.844l20.036-27.36z"/>
                    </g>
                    <path fill="#BFC3D4" d="M130.791 39.608a1.388 1.388 0 0 1-1.12-2.213c.32-.42.483-.936.463-1.463a1.657 1.657 0 0 0-.74-1.25 1.39 1.39 0 0 1 1.638-2.24 4.436 4.436 0 0 1 1.85 3.305 5.03 5.03 0 0 1-.99 3.287 1.387 1.387 0 0 1-1.1.574z"/>
                    <path fill="#FFF" d="M134.039 48.487c-.184 0-.366-.035-.537-.102a1.48 1.48 0 0 1-.75-.75 1.556 1.556 0 0 1-.101-.537 1.343 1.343 0 0 1 0-.268 1.214 1.214 0 0 1 .203-.5c.103-.151.232-.283.38-.39l.24-.129.26-.074a1.35 1.35 0 0 1 .545 0l.26.074.24.13c.075.053.146.112.213.176.123.133.223.287.296.453.037.083.065.17.083.26.009.089.009.179 0 .268 0 .185-.038.367-.111.537a1.287 1.287 0 0 1-.296.444 1.406 1.406 0 0 1-.925.408zM81.285 9.86c-.367 0-.72-.147-.98-.407a1.362 1.362 0 0 1-.407-.981 2.622 2.622 0 0 1 0-.278 1.39 1.39 0 0 1 .083-.26 1.425 1.425 0 0 1 1.008-.833c.454-.083.919.059 1.25.38.066.064.125.135.175.213.052.075.096.156.13.24.037.083.062.17.074.26.009.092.009.185 0 .278a1.389 1.389 0 0 1-.851 1.277 1.331 1.331 0 0 1-.482.111z"/>
                    <path fill="#BFC3D4" d="M94.515 13.036a1.388 1.388 0 0 1-1.12-2.213 1.853 1.853 0 0 0-.277-2.713 1.39 1.39 0 0 1 1.638-2.24 4.63 4.63 0 0 1 .925 6.592c-.27.373-.706.588-1.166.574z"/>
                    <path fill="#68739B" d="M106.681 67.245c-.293-.001-.578-.095-.814-.269a4.436 4.436 0 0 1-1.85-3.305 5.03 5.03 0 0 1 .99-3.287 1.387 1.387 0 0 1 2.239 1.639c-.319.42-.482.936-.463 1.463.041.508.314.97.74 1.25a1.39 1.39 0 0 1-.823 2.509h-.019zM119.532 65.652c-.181.003-.36-.031-.527-.102a1.407 1.407 0 0 1-.86-1.287 1.418 1.418 0 0 1 0-.268c.017-.09.045-.176.082-.26a1.37 1.37 0 0 1 .75-.75 1.24 1.24 0 0 1 .259-.083c.453-.081.918.06 1.249.38.066.064.125.136.176.213.052.075.095.156.13.24.037.083.062.17.073.26.009.09.009.18 0 .268a1.52 1.52 0 0 1-.102.537c-.072.17-.175.324-.305.454-.126.129-.277.23-.444.296a1.313 1.313 0 0 1-.481.102zM66.779 27.026a1.388 1.388 0 0 1-1.388-1.39c-.01-.088-.01-.178 0-.268a1.482 1.482 0 0 1 .213-.509c.047-.074.103-.142.166-.204.067-.063.138-.122.213-.175l.24-.13.26-.074a1.35 1.35 0 0 1 .546 0l.259.074.24.13a1.85 1.85 0 0 1 .38.38c0 .082.092.157.129.24.03.088.054.178.074.268.01.09.01.18 0 .269.004.369-.143.723-.407.981-.126.129-.277.23-.444.297a1.36 1.36 0 0 1-.481.11zM70.405 40.682c-.293 0-.578-.095-.814-.269a4.436 4.436 0 0 1-1.85-3.305 5.02 5.02 0 0 1 .99-3.287 1.387 1.387 0 0 1 2.239 1.64c-.319.419-.482.936-.463 1.462.043.508.316.968.74 1.25a1.39 1.39 0 0 1-.823 2.509h-.019z"/>
                    <path fill="#2F3A5B" d="M111.946 44.802c-.293 0-.579-.095-.815-.269L88.927 28.266a1.39 1.39 0 0 1 1.638-2.24l22.204 16.267a1.39 1.39 0 0 1-.823 2.509z"/>
                    <path fill="#BFC3D4" d="M66.39 41.765a1.388 1.388 0 0 1-1.388-1.389 1.853 1.853 0 0 0-1.85-2.027 1.388 1.388 0 0 1 0-2.778 4.624 4.624 0 0 1 4.626 4.805c0 .767-.621 1.39-1.388 1.39z"/>
                </g>
                <path fill="#68739B" d="M133.673 227.726a1.332 1.332 0 0 1-.98-.408 1.204 1.204 0 0 1-.306-.444 1.334 1.334 0 0 1-.11-.537 1.38 1.38 0 0 1 .416-.981c.33-.322.796-.463 1.249-.38.089.02.175.047.259.083.085.035.165.078.24.13a.925.925 0 0 1 .204.167c.259.26.405.613.407.981.004.369-.143.724-.407.981-.242.253-.575.4-.925.408h-.047z"/>
            </g>
            <g fill-rule="nonzero" mask="url(#d)">
                <g transform="translate(68.68 102.347)">
                    <ellipse cx="24.027" cy="47.792" fill="#E9E9ED" rx="17.254" ry="2.12"/>
                    <path fill="#A0CB4E" d="M32.381 17.276c-3.7-1.305-7.207 0-11.51 0h-.415c-4.303 0-7.772-1.342-11.51 0-6.79 2.37-8.049 8.592-8.049 14.592 0 6.23 4.265 11.712 9.465 14.962 3.118 1.944 6.041.36 10.094.36h.416c4.052 0 6.976 1.584 10.093-.36 5.2-3.24 9.465-8.731 9.465-14.962.01-6-1.249-12.23-8.049-14.592z"/>
                    <path fill="#81AA29" d="M9.733.926a10.79 10.79 0 0 1 7.04.555c7.402 3.195 5.551 11.592 5.431 11.925-.333.084-8.724 2.019-11.916-5.434A10.729 10.729 0 0 1 9.733.926z"/>
                    <path fill="#B2DE5D" d="M35.823 29.822a1.388 1.388 0 0 1-1.37-1.185c-.85-5.787-5.55-6.296-8.252-6.083h-.222a1.388 1.388 0 0 1-.056-2.778c4.839-.37 10.27 1.648 11.269 8.444a1.39 1.39 0 0 1-1.175 1.574l-.194.028zM19.28 11.258a1.388 1.388 0 0 1-1.387-1.388c-.01-.09-.01-.18 0-.269.063-.266.193-.512.38-.713.33-.327.801-.469 1.257-.38.09.02.176.048.26.084.084.03.165.07.24.12l.203.176c.064.067.123.138.176.213.049.077.092.158.13.24.037.084.065.17.083.26.005.09.005.18 0 .269a1.407 1.407 0 0 1-1.397 1.388h.056z"/>
                </g>
                <path fill="#81AA29" d="M85.139 147.77c-.138-.002-.275-.024-.407-.066a15.736 15.736 0 0 1-11.49-13.702 1.39 1.39 0 0 1 1.34-1.435 1.36 1.36 0 0 1 1.435 1.333c0 .343.453 8.388 9.52 11.11a1.389 1.389 0 0 1-.407 2.713l.009.046z"/>
                <path fill="#B2DE5D" d="M104.605 136.603a1.398 1.398 0 1 1 1.387-1.407 1.39 1.39 0 0 1-1.387 1.407z"/>
            </g>
            <g fill-rule="nonzero" mask="url(#d)">
                <path fill="#A0CB4E" d="M76.729 76.293a4.876 4.876 0 0 1 .746-6.853 4.88 4.88 0 0 1 6.857.736l44.567 55.34a4.876 4.876 0 0 1-.746 6.853 4.88 4.88 0 0 1-6.858-.737L76.73 76.292z"/>
                <path fill="#81AA29" d="M95.251 96.07a1.461 1.461 0 0 1 .217-2.06 1.468 1.468 0 0 1 2.06.228l24.498 30.419c.509.632.416 1.551-.217 2.06a1.468 1.468 0 0 1-2.06-.228L95.25 96.07zM83.418 73.58c-2.35-2.777.13-5.795.232-5.906.148 0 3.922.926 3.7 4.629a2.323 2.323 0 0 1-3.932 1.278zM77.932 78.2c-3.645-.23-4.099-4.092-4.108-4.249.13-.083 3.405-2.176 5.884.5a2.325 2.325 0 0 1-1.776 3.75z"/>
                <path fill="#A0CB4E" d="M85.093 72.183c-2.406-6.74-9.909-5.49-10.177-5.435-.093.287-2.257 7.592 4.135 10.805 3.22 1.648 7.208-2.056 6.042-5.37z"/>
                <path fill="#B2DE5D" d="M80.402 75.599c-3.525-.926-3.192-4.833-3.173-4.99.139-.056 3.775-1.454 5.662 1.675a2.325 2.325 0 0 1-2.489 3.315z"/>
                <path fill="#81AA29" d="M82.65 75.923c-3.034-2.046-1.461-5.601-1.406-5.74.157 0 4.043-.158 4.83 3.416a2.325 2.325 0 0 1-3.424 2.324z"/>
                <path fill="#81AA29" d="M80.106 78.062c-3.571-.769-3.442-4.63-3.432-4.815.139-.064 3.7-1.648 5.745 1.38a2.325 2.325 0 0 1-2.313 3.435z"/>
                <path fill="#B2DE5D" d="M84.899 76.71c-2.776-2.333-.926-5.722-.824-5.851.157 0 4.034.24 4.46 3.87a2.324 2.324 0 0 1-3.636 1.981z"/>
                <path fill="#B2DE5D" d="M80.976 79.08c-3.294-1.583-2.258-5.333-2.211-5.48.148 0 3.978-.741 5.264 2.684a2.325 2.325 0 0 1-3.053 2.796z"/>
                <path fill="#A0CB4E" d="M85.333 79.599c-2.655-4.63 1.647-8.24 1.85-8.388.204.092 5.367 2.36 4.127 7.517-.61 2.64-4.607 3.158-5.977.87z"/>
                <path fill="#81AA29" d="M83.872 79.312c-3.035-2.046-1.462-5.602-1.407-5.74.158 0 4.043-.158 4.83 3.416a2.325 2.325 0 0 1-3.423 2.324zM91.023 93.792c-2.59.426-3.534-2.213-3.571-2.315.074-.083 2.035-2.083 4.21-.601a1.667 1.667 0 0 1-.639 2.916z"/>
                <path fill="#B2DE5D" d="M81.734 77.738c-1.59-2.704-4.718-1.546-4.838-1.5 0 .13-.343 3.453 2.664 4.305a1.988 1.988 0 0 0 2.174-2.805zM100.858 101.893c-2.036-2.388-4.913-.703-5.024-.639 0 .13.26 3.454 3.368 3.787a1.989 1.989 0 0 0 1.656-3.148z"/>
                <path fill="#81AA29" d="M85.158 79.682c-3.646-3.315-7.8-.111-7.957 0 0 .204 1.092 5.342 6.014 5.222 2.507-.046 3.756-3.574 1.943-5.222z"/>
                <path fill="#81AA29" d="M85.139 83.672c-3.7-1.972-6.476 1.547-6.587 1.686.074.157 2.026 4.184 6.069 3.055a2.666 2.666 0 0 0 .518-4.74z"/>
                <path fill="#A0CB4E" d="M88.46 81.386c-1.249-4.472 3.192-6.62 3.368-6.704.157.12 4.034 3.176 1.85 7.268-1.091 2.093-4.598 1.658-5.218-.564z"/>
                <path fill="#B2DE5D" d="M91.449 82.349c-1.592-4.463-6.569-3.64-6.763-3.602-.056.194-1.49 5.027 2.775 7.157 2.119 1.102 4.783-1.333 3.988-3.555z"/>
                <path fill="#A0CB4E" d="M98.852 75.474a4.877 4.877 0 0 1 2.84-6.282 4.878 4.878 0 0 1 6.29 2.83l25.147 66.444a4.877 4.877 0 0 1-2.84 6.282 4.878 4.878 0 0 1-6.29-2.831L98.853 75.474z"/>
                <path fill="#81AA29" d="M106.03 74.979c-1.37-3.389 1.924-5.463 2.053-5.555.13.083 3.433 2.13 2.091 5.555a2.322 2.322 0 0 1-4.145 0zM99.414 77.673c-3.395-1.352-2.618-5.166-2.59-5.314.148 0 3.913-1.01 5.44 2.314a2.325 2.325 0 0 1-2.85 3z"/>
                <path fill="#A0CB4E" d="M108.065 74.164c-.195-7.157-7.716-8.333-8.012-8.333-.176.25-4.497 6.481.573 11.564 2.572 2.574 7.531.324 7.439-3.231z"/>
                <path fill="#B2DE5D" d="M102.541 75.95c-3.053-2.008-1.526-5.554-1.47-5.73.157 0 4.033-.204 4.866 3.36a2.325 2.325 0 0 1-3.396 2.37z"/>
                <path fill="#81AA29" d="M104.577 76.97c-2.248-2.89.351-5.787.453-5.898.148 0 3.886 1.101 3.525 4.74a2.323 2.323 0 0 1-3.978 1.157z"/>
                <path fill="#81AA29" d="M101.496 78.2c-3.155-1.851-1.85-5.499-1.767-5.638.157 0 4.024-.416 5.033 3.093a2.325 2.325 0 0 1-3.266 2.546z"/>
                <path fill="#B2DE5D" d="M106.473 78.414c-1.952-3.093.926-5.722 1.037-5.824.148.056 3.756 1.49 3.034 5.074a2.323 2.323 0 0 1-4.07.75z"/>
                <path fill="#B2DE5D" d="M101.986 79.45c-2.636-2.527-.49-5.767-.397-5.897.148 0 4.006.537 4.172 4.185a2.324 2.324 0 0 1-3.775 1.713z"/>
                <path fill="#A0CB4E" d="M106.03 81.312c-1.102-5.194 4.126-7.324 4.33-7.407.166.148 4.366 3.916 1.581 8.434-1.406 2.306-5.329 1.556-5.912-1.027z"/>
                <path fill="#81AA29" d="M104.679 80.57c-2.249-2.888.351-5.786.453-5.897.148 0 3.886 1.102 3.525 4.74a2.323 2.323 0 0 1-3.978 1.158zM120.592 112.726c-1.749-3.213 1.276-5.648 1.397-5.75.138.065 3.7 1.722 2.71 5.25a2.323 2.323 0 0 1-4.107.5z"/>
                <path fill="#B2DE5D" d="M103.143 78.404c-.676-3.064-3.997-2.935-4.136-2.925-.055.12-1.397 3.166 1.194 4.925a1.988 1.988 0 0 0 2.942-2z"/>
                <path fill="#A0CB4E" d="M105.789 81.312c-2.433-4.278-7.402-2.537-7.568-2.463 0 .203-.62 5.416 4.098 6.833 2.443.731 4.682-2.241 3.47-4.37z"/>
                <path fill="#81AA29" d="M105.743 84.385c-3.858-1.675-6.329 2.056-6.43 2.204.092.157 2.35 4.009 6.29 2.565a2.667 2.667 0 0 0 .14-4.769zM108.407 83.96c.204-4.63 5.089-5.296 5.283-5.324.11.157 2.85 4.268-.49 7.49-1.703 1.648-4.895.148-4.793-2.167z"/>
                <path fill="#B2DE5D" d="M110.942 85.811c-.13-4.74-5.107-5.5-5.31-5.555-.111.167-2.98 4.315.379 7.657 1.711 1.74 4.996.26 4.931-2.102z"/>
                <path fill="#81AA29" d="M112.156 104.081a1.462 1.462 0 0 1 .847-1.891c.755-.286 1.6.1 1.887.857l13.823 36.523a1.462 1.462 0 0 1-.847 1.891c-.755.286-1.6-.1-1.887-.858l-13.823-36.522z"/>
                <path fill="#B2DE5D" d="M113.81 107.31c-1.193-2.898-4.45-2.204-4.58-2.176 0 .13-.832 3.36 2.027 4.629a1.988 1.988 0 0 0 2.553-2.454z"/>
            </g>
            <g fill-rule="nonzero" mask="url(#d)">
                <g transform="translate(114.939 90.31)">
                    <ellipse cx="22.454" cy="64.171" fill="#E9E9ED" rx="17.254" ry="2.12"/>
                    <path fill="#FCCC2F" d="M35.823 27.192c-2.517-1.972-4.747-13.35-8.975-14.813a9.458 9.458 0 0 0-4.394-.186 9.458 9.458 0 0 0-4.395.186c-4.228 1.472-6.476 12.85-8.974 14.813C2.11 30.535.76 37.72.76 44.654c0 7.75 5.3 14.582 11.777 18.619 3.173 1.981 6.18 1.027 9.927.61 3.7.417 6.754 1.362 9.927-.61 6.476-4.037 11.778-10.87 11.778-18.62-.01-6.934-1.37-14.1-8.345-17.46z"/>
                    <path fill="#A0CB4E" d="M30.771.926a7.877 7.877 0 0 0-5.144.407c-5.43 2.333-4.015 8.463-3.96 8.703.241.056 6.366 1.472 8.697-3.962a7.838 7.838 0 0 0 .407-5.148z"/>
                    <path fill="#FFE67B" d="M39.088 41.608a1.388 1.388 0 0 1-1.387-1.296c-.426-6.592-7.402-8.75-7.688-8.833l-.657-.194-.24-.649-4.784-12.841a1.39 1.39 0 0 1 1.55-1.96c.518.115.926.517 1.05 1.034l4.524 12.175c2.137.815 8.52 3.824 8.992 11.11a1.388 1.388 0 0 1-1.295 1.472l-.065-.018zM39.32 45.607a1.398 1.398 0 1 1 1.387-1.407 1.39 1.39 0 0 1-1.387 1.407z"/>
                    <path fill="#81AA29" d="M24.286 8.833c-.093.009-.186.009-.278 0a1.36 1.36 0 0 1-.259-.074l-.24-.13a1.25 1.25 0 0 1-.204-.176 1.37 1.37 0 0 1-.407-.981 1.353 1.353 0 0 1 0-.269 1.223 1.223 0 0 1 .203-.5c.05-.077.11-.149.176-.213.062-.063.13-.119.204-.166.076-.05.157-.094.24-.13a1.359 1.359 0 0 1 1.304.13c.078.047.15.103.214.166.257.262.4.615.397.982.006.367-.138.721-.397.981a1.406 1.406 0 0 1-.953.38z"/>
                    <path fill="#E8AE0A" d="M17.68 61.477c-.138-.001-.275-.023-.407-.065a15.736 15.736 0 0 1-11.49-13.703 1.39 1.39 0 1 1 2.775-.102c0 .37.462 8.389 9.52 11.11a1.389 1.389 0 0 1-.407 2.713l.009.047z"/>
                </g>
            </g>
        </g>
    </g>
</svg>
