<svg xmlns="http://www.w3.org/2000/svg" width="98" height="100" viewBox="0 0 98 100">
    <path fill="#FF8848" fill-rule="evenodd" d="M25.913 78.763C11.73 73.343 1.67 59.684 1.67 43.683c0-4.623.852-9.049 2.376-13.143a37.59 37.59 0 0 1 4.725-8.777 39.907 39.907 0 0 0-1.415 4.361 40.726 40.726 0 0 0-1.418 10.749c0 5.5 1.082 10.773 3.025 15.594 1.583 4.197 3.777 7.736 6.358 10.711a41.859 41.859 0 0 0 7.269 6.996c.487.372.985.716 1.49 1.075a42.08 42.08 0 0 0 6.232 3.535 40.322 40.322 0 0 0 4.223 1.692 42.397 42.397 0 0 0 13.458 2.184c2.235 0 4.436-.167 6.575-.518a37.846 37.846 0 0 1-14.489 3.115c-.22 0-.398.01-.6.01a39.118 39.118 0 0 1-8.844-1.04 38.434 38.434 0 0 1-4.045-1.212c-.227-.082-.46-.164-.677-.252zm-4.78-15.293a36.306 36.306 0 0 1-8.752-11.942c-1.942-4.06-3.25-8.902-3.192-14.577 0-1.349.083-2.755.263-4.203.465-3.854 1.383-7.242 2.615-10.237 1.419-3.474 3.285-6.41 5.421-8.879.266-.325.556-.63.842-.93.383-.415.766-.812 1.18-1.209 3.924-3.816 8.455-6.356 12.668-8.043 4.22-1.69 8.14-2.522 10.797-2.937.57-.037 2.478-.314 3.085-.332C48.255-.003 50.67 0 50.67 0c-4.675.387-8.257 1.694-11.018 2.769l-.386.15a39.33 39.33 0 0 0-6.864 3.564 36.496 36.496 0 0 0-3.343 2.436c-8.744 7.123-14.324 17.918-14.324 30.014 0 .451.014.91.024 1.362a38.478 38.478 0 0 0 6.004 19.338 38.437 38.437 0 0 0 3.261 4.405c.007.017.038.034.048.058.4.455.815.924 1.236 1.359.849.907 1.742 1.77 2.684 2.59.325.271.65.559.977.826a37.422 37.422 0 0 1-3.779-2.218c-.424-.298-.842-.589-1.26-.89a39.101 39.101 0 0 1-2.798-2.293zM45.657 3.935a36.207 36.207 0 0 1 10.801-1.73l.051.007v-.006c7.841-.076 14.238 2.421 18.234 4.542 2.878 1.57 6.551 4.635 6.551 4.635-.301-.153-.59-.29-.888-.433-.13-.075-.295-.143-.473-.218.168.075.322.143.473.218l-.84-.378c-1.005-.43-2.463-.99-3.818-1.49a36.679 36.679 0 0 0-2.555-.768 42.408 42.408 0 0 0-6.819-1.204 43.183 43.183 0 0 0-3.88-.17c-1.553 0-3.08.078-4.582.245a41.915 41.915 0 0 0-5.526.969 41.121 41.121 0 0 0-4.318 1.33c-14.056 5.143-24.535 17.605-26.805 32.738a42.289 42.289 0 0 0-.46 6.156c0 1.105.045 2.206.12 3.284a15 15 0 0 1 .096.955c-.051-.15-.11-.297-.154-.436a35.962 35.962 0 0 1-2.062-9.383 37.867 37.867 0 0 1-.15-3.185c0-11.054 4.863-20.969 12.567-27.773a36.368 36.368 0 0 1 5.042-3.734 35.933 35.933 0 0 1 4.17-2.241 36.153 36.153 0 0 1 5.225-1.93zm47.01 21.391C96.363 30.226 98 34.56 98 34.56s-2.027-2.88-6.013-6.268c-.08-.061-.142-.123-.222-.184-.193-.174-.418-.34-.619-.514a55.972 55.972 0 0 0-2.304-1.754 45.589 45.589 0 0 0-10.905-5.72 43.676 43.676 0 0 0-6.225-1.736 45.319 45.319 0 0 0-4.947-.712l-3.17-.157a50.042 50.042 0 0 0-10.673.97c-6.584 1.291-11.653 3.634-15.465 6.133a41.78 41.78 0 0 0-11.843 13.399c4.345-13.014 15.555-22.97 29.415-25.698a42.17 42.17 0 0 1 4.17-.582 39.293 39.293 0 0 1 3.11-.157c.138 0 .28-.01.418-.01.654 0 1.287.024 1.927.055a40.01 40.01 0 0 1 8.134 1.236 39.166 39.166 0 0 1 13.667 6.626 31.37 31.37 0 0 1 1.816 1.447c.18.163.377.33.578.497 1.37 1.209 2.622 2.513 3.82 3.895zm-5.406 35.588c.083.335.162.663.221.988.325 1.787.494 3.629.494 5.522A31.276 31.276 0 0 1 84.46 81.86l-2.06 3.42a31.926 31.926 0 0 1-10.601 9.68 47.725 47.725 0 0 1-11.804 4.08c-17.58 3.57-31.616-3.964-31.616-3.964 4.178.24 7.96.116 11.364-.277a57.018 57.018 0 0 0 3.287-.475c5.576-1.015 10.045-2.77 13.598-4.787.812-.461 1.58-.936 2.292-1.418 6.094-4.117 8.89-8.801 9.771-10.513.221-.43.315-.667.315-.667-.477.667-.781 1.11-1.514 1.914a41.83 41.83 0 0 1-12.557 8.662c-.885.403-1.801.772-2.731 1.113a41.77 41.77 0 0 1-3.11 1.012c-4.245 1.073-8.175 1.455-11.12 1.554-.242.01-.47.02-.699.02-.895 0-1.787-.04-2.668-.102a42.173 42.173 0 0 1-18.7-5.832C1.256 75.1 0 55.523 0 55.523s.273.967.982 2.5c4.503 11.85 14.482 21.052 26.853 24.718.587.174 1.172.335 1.773.489a41.901 41.901 0 0 0 10.096 1.226 41.669 41.669 0 0 0 5.416-.349 41.432 41.432 0 0 0 19.47-7.889 7.53 7.53 0 0 1 .447-.334 37.63 37.63 0 0 0 2.316-1.927 40.309 40.309 0 0 0 4.884-5.187c3.78-4.456 5.205-8.21 5.205-8.21a2.632 2.632 0 0 1-.373.477c-1.32 1.422-3.388 1.815-4.895 1.876-.515.024-.957.02-1.296-.007a5.51 5.51 0 0 1-.587-.047c.324-.076.642-.171.943-.274a6.465 6.465 0 0 0 1.625-.84c1.261-.91 2.215-2.361 3.062-4.674.47-1.278.899-2.816 1.338-4.671.508-2.228 1.372-3.492 2.323-4.196.324-.24.66-.42.988-.543.09-.035.16-.062.228-.09a.252.252 0 0 0 .094-.027c1.745-.505 3.439.144 3.75-.386.542-.984 2.571-1.428 2.571-1.428-2.201 2.392-1.866 6.847-1.303 9.847.094.52.194 1.005.287 1.412.239 1.007.45 1.646.45 1.646.11.36.21.718.304 1.08.114.4.22.803.31 1.2z"/>
</svg>
