<svg xmlns="http://www.w3.org/2000/svg" xmlns:xlink="http://www.w3.org/1999/xlink" width="412" height="409" viewBox="0 0 412 409">
    <defs>
        <path id="b" d="M239.966 414.758l-75.231.242a59.229 59.229 0 0 1-51.555-29.737L75.8 320.16l-37.738-64.81a59.229 59.229 0 0 1 .005-59.616l37.766-64.832 37.422-65.146a59.229 59.229 0 0 1 51.527-29.727l75.252.214L315.265 36a59.229 59.229 0 0 1 51.555 29.737l37.38 65.104 37.738 64.81a59.229 59.229 0 0 1-.005 59.616l-37.766 64.832-37.422 65.146a59.229 59.229 0 0 1-51.527 29.727l-75.252-.214z"/>
        <filter id="a" width="122.1%" height="124.5%" x="-11.1%" y="-12.3%" filterUnits="objectBoundingBox">
            <feMorphology in="SourceAlpha" operator="dilate" radius="2.5" result="shadowSpreadOuter1"/>
            <feOffset in="shadowSpreadOuter1" result="shadowOffsetOuter1"/>
            <feGaussianBlur in="shadowOffsetOuter1" result="shadowBlurOuter1" stdDeviation="13"/>
            <feColorMatrix in="shadowBlurOuter1" values="0 0 0 0 0.749019608 0 0 0 0 0.749019608 0 0 0 0 0.749019608 0 0 0 0 0"/>
        </filter>
        <path id="c" d="M0 0h253.728v253.924H0z"/>
    </defs>
    <g fill="none" fill-rule="evenodd">
        <g transform="rotate(-14 137.484 353.454)">
            <use fill="#000" filter="url(#a)" xlink:href="#b"/>
            <use fill="#FFF" xlink:href="#b"/>
        </g>
        <g transform="translate(76.77 72.8)">
            <mask id="d" fill="#fff">
                <use xlink:href="#c"/>
            </mask>
            <g fill-rule="nonzero" mask="url(#d)">
                <path fill="#DDE1ED" d="M127.817 214.424c-47.326 0-85.69-38.39-85.69-85.746 0-47.356 38.364-85.746 85.69-85.746 47.325 0 85.69 38.39 85.69 85.746-.053 47.335-38.387 85.694-85.69 85.746zm0-168.632c-45.747 0-82.833 37.11-82.833 82.886 0 45.777 37.086 82.886 82.833 82.886 45.746 0 82.832-37.11 82.832-82.886-.027-45.766-37.096-82.86-82.832-82.886z"/>
                <g transform="translate(176.401 54.514)">
                    <path fill="#9DA4C1" d="M32.114 116.899a6.865 6.865 0 0 0 2.41-5.224v-5.958l.266-57.32a2.86 2.86 0 0 0-2.486-2.86h-.457a2.859 2.859 0 0 1-2.763-2.86V40.61c0-1.58 1.28-2.86 2.858-2.86a2.859 2.859 0 0 0 2.858-2.86V24.661c0-6.435-3.81-11.087-9.203-13.24a6.67 6.67 0 0 0-5.906-6.026V4.07h.314a1.606 1.606 0 0 0 0-3.212h-5.02a1.606 1.606 0 0 0 0 3.212h.257v1.325a6.67 6.67 0 0 0-5.906 6.006A13.517 13.517 0 0 0 .41 24.356v10.333c0 1.58 1.28 2.86 2.858 2.86h.095a2.859 2.859 0 0 1 2.858 2.46c.006.104.006.21 0 .314l.076 2.135a2.86 2.86 0 0 1-2.858 2.965h-.171c-.219 0-.436.026-.648.076v.057-.057A2.86 2.86 0 0 0 .4 48.283v63.392c0 2.077.938 4.043 2.553 5.348-1.8.343-2.858.753-2.858 1.182 0 1.21 7.955 2.183 17.767 2.183s17.767-.954 17.767-2.183c.047-.486-1.334-.954-3.515-1.306z"/>
                    <ellipse cx="17.91" cy="118.205" fill="#E9E9ED" rx="17.767" ry="2.183"/>
                    <path fill="#1C2444" d="M15.28 1.811h4.402v6.063H15.28z"/>
                    <path fill="#1C2444" d="M16.062 5.348h2.857a6.67 6.67 0 0 1 6.669 6.673v2.726H9.345v-2.726c0-1.778.71-3.483 1.97-4.736a6.666 6.666 0 0 1 4.747-1.937zM13.366 2.464c0-.887.716-1.606 1.606-1.606h5.018c.887 0 1.606.713 1.606 1.606 0 .887-.716 1.606-1.606 1.606h-5.018a1.602 1.602 0 0 1-1.606-1.606z"/>
                    <path fill="#9DA4C1" d="M2.667 45.5a2.86 2.86 0 0 0-2.22 2.783v63.392a6.88 6.88 0 0 0 6.879 6.882h20.3a6.88 6.88 0 0 0 6.879-6.882v-5.958l.266-57.32a2.86 2.86 0 0 0-2.486-2.86H2.667V45.5zM34.79 34.88V24.66c0-8.998-7.354-14.536-16.356-14.594H16.68C7.754 10.02.486 15.414.486 24.366v10.333a2.86 2.86 0 0 0 2.229 2.793H33.2a2.86 2.86 0 0 0 1.59-2.612z"/>
                    <g fill="#878DA8">
                        <path d="M6.278 40.314l.076 2.135a2.86 2.86 0 0 1-2.858 2.964h-.171c-.218.001-.436.027-.648.077v.057h29.627-.457a2.859 2.859 0 0 1-2.763-2.86V40.61c0-.205.023-.41.067-.61H6.287c.003.105 0 .21-.01.315z"/>
                        <path d="M31.933 37.75a2.856 2.856 0 0 0 1.21-.277H2.657c.21.05.423.075.638.076h.095a2.859 2.859 0 0 1 2.858 2.46h22.864a2.858 2.858 0 0 1 2.82-2.26z"/>
                    </g>
                    <path fill="#68739B" d="M31.933 37.75a2.856 2.856 0 0 0 1.21-.277H2.657c.21.05.423.075.638.076h.095a2.859 2.859 0 0 1 2.858 2.46h22.864a2.858 2.858 0 0 1 2.82-2.26z"/>
                    <path fill="#BFC3D4" d="M30.17 20.314a1.429 1.429 0 0 1-1.305-.839 5.06 5.06 0 0 0-3.039-2.764 1.43 1.43 0 1 1 .953-2.688 7.976 7.976 0 0 1 4.668 4.27 1.43 1.43 0 0 1-1.305 2.021h.028zM31.199 95.88a1.43 1.43 0 0 1-1.429-1.43V52.095a1.84 1.84 0 0 0-1.82-1.84 1.43 1.43 0 0 1 0-2.86 4.708 4.708 0 0 1 4.659 4.7v42.353a1.43 1.43 0 0 1-1.41 1.43z"/>
                    <path fill="#878DA8" d="M4.134 36.11a1.43 1.43 0 0 1-1.428-1.43V19.96a1.43 1.43 0 1 1 2.857 0v14.71a1.43 1.43 0 0 1-1.429 1.439zM4.134 108.157a1.43 1.43 0 0 1-1.428-1.43V48.578a1.43 1.43 0 1 1 2.857 0v58.15c0 .79-.64 1.43-1.429 1.43z"/>
                </g>
                <g transform="translate(135.438 149.84)">
                    <ellipse cx="26.645" cy="41.858" fill="#E9E9ED" rx="25.817" ry="1.678"/>
                    <g transform="translate(17.148)">
                        <ellipse cx="21.025" cy="21.105" fill="#F2672A" rx="20.949" ry="20.962"/>
                        <path fill="#D84512" d="M21.025 38.57A17.452 17.452 0 0 1 4.87 27.81 17.472 17.472 0 0 1 8.64 8.76a1.428 1.428 0 0 1 2.02 2.021c-5.29 5.323-5.684 13.792-.914 19.585 4.771 5.793 13.153 7.023 19.386 2.846a1.43 1.43 0 0 1 2.227 1.086c.036.51-.203 1.001-.627 1.287a17.359 17.359 0 0 1-9.707 2.984z"/>
                    </g>
                    <path fill="#FF8848" d="M53.643 19.18a1.43 1.43 0 0 1-1.39-1.125C50.442 9.609 44.135 7.502 42.25 7.064a1.43 1.43 0 1 1 .647-2.784c4.764 1.115 10.422 5.157 12.147 13.174a1.43 1.43 0 0 1-1.096 1.697c-.1.02-.202.03-.305.029z"/>
                    <ellipse cx="43.869" cy="13.489" fill="#D84512" rx="1.915" ry="1.916"/>
                    <path fill="#FF8848" d="M53.49 28.026a1.429 1.429 0 0 1-1.371-1.85c.36-1.062.547-2.176.553-3.298a1.434 1.434 0 0 1 2.052-1.395c.461.223.768.675.805 1.186a12.61 12.61 0 0 1-.666 4.346 1.43 1.43 0 0 1-1.372 1.011z"/>
                </g>
                <path fill="#F2672A" d="M171.981 186.484c-8.246 7.792-21.19 7.607-29.21-.418s-8.205-20.978-.417-29.229l29.627 29.647z"/>
                <path fill="#FCCC2F" d="M170.447 184.978c-7.21 7.215-18.901 7.215-26.112 0-7.21-7.215-7.21-18.914 0-26.13l26.112 26.13z"/>
                <path fill="#FF8848" d="M151.633 184.349a4.713 4.713 0 0 1-7.89-2.116 4.72 4.72 0 0 1 1.221-4.557c1.83-1.83 10.717-4.09 10.717-4.09s-2.257 8.932-4.048 10.763zM162.112 184.692c0 2.593-2.1 4.695-4.692 4.695a4.693 4.693 0 0 1-4.692-4.695c0-2.593 4.687-10.486 4.687-10.486s4.697 7.893 4.697 10.486zM169.866 184.396a4.685 4.685 0 0 1-6.668 0c-1.83-1.83-4.087-10.724-4.087-10.724l10.755 10.724zM144.688 167.295a4.693 4.693 0 0 0-4.692 4.695c0 2.592 2.1 4.694 4.692 4.694 2.591 0 10.479-4.69 10.479-4.69s-7.888-4.7-10.48-4.7zM144.964 159.507a4.692 4.692 0 0 0 0 6.672c1.83 1.83 10.717 4.09 10.717 4.09l-10.717-10.762z"/>
                <path fill="#A0CB4E" d="M43.495 61.978a5.017 5.017 0 0 1 .761-7.051l.023-.019a5.009 5.009 0 0 1 7.046.763L97.15 112.65a5.017 5.017 0 0 1-.761 7.051l-.023.019a5.009 5.009 0 0 1-7.046-.763L43.495 61.978z"/>
                <path fill="#81AA29" d="M62.553 82.328a1.507 1.507 0 0 1 .225-2.123 1.509 1.509 0 0 1 2.12.234l25.19 31.32a1.507 1.507 0 0 1-.225 2.123 1.509 1.509 0 0 1-2.121-.235L62.553 82.328zM50.348 59.176c-2.42-2.86.133-5.968.238-6.082.152 0 4.04.953 3.81 4.766a2.392 2.392 0 0 1-4.048 1.316zM44.727 63.932c-3.753-.238-4.22-4.213-4.23-4.375.134-.086 3.506-2.24 6.06.515a2.394 2.394 0 0 1-1.83 3.86z"/>
                <path fill="#A0CB4E" d="M52.072 57.736c-2.477-6.94-10.203-5.653-10.479-5.596-.095.296-2.324 7.817 4.258 11.125 3.316 1.735 7.45-2.078 6.221-5.529z"/>
                <path fill="#B2DE5D" d="M47.242 61.254c-3.63-.954-3.286-4.976-3.267-5.138.143-.058 3.886-1.497 5.83 1.725a2.394 2.394 0 0 1-2.563 3.413z"/>
                <path fill="#81AA29" d="M49.557 61.587c-3.125-2.106-1.505-5.767-1.448-5.91.162 0 4.163-.162 4.973 3.518a2.393 2.393 0 0 1-3.525 2.392z"/>
                <path fill="#81AA29" d="M46.937 63.79c-3.677-.792-3.544-4.767-3.534-4.958.143-.066 3.81-1.696 5.916 1.42a2.394 2.394 0 0 1-2.382 3.537z"/>
                <path fill="#B2DE5D" d="M51.872 62.398c-2.858-2.403-.953-5.892-.848-6.025.162 0 4.154.248 4.592 3.985a2.393 2.393 0 0 1-3.744 2.04z"/>
                <path fill="#B2DE5D" d="M47.795 64.838c-3.392-1.63-2.325-5.49-2.277-5.643.152 0 4.096-.763 5.42 2.764a2.394 2.394 0 0 1-3.143 2.879z"/>
                <path fill="#A0CB4E" d="M52.367 65.372c-2.734-4.767 1.696-8.484 1.906-8.637.21.096 5.525 2.431 4.248 7.74-.676 2.718-4.791 3.251-6.154.897z"/>
                <path fill="#81AA29" d="M50.815 65.076c-3.125-2.106-1.506-5.767-1.448-5.91.162 0 4.163-.162 4.972 3.518a2.393 2.393 0 0 1-3.524 2.392zM58.178 79.985c-2.667.439-3.639-2.278-3.677-2.383.077-.086 2.096-2.145 4.335-.62a1.716 1.716 0 0 1-.658 3.003z"/>
                <path fill="#B2DE5D" d="M48.614 63.456c-1.639-2.784-4.858-1.592-4.982-1.545 0 .134-.353 3.556 2.743 4.433a2.047 2.047 0 0 0 2.239-2.888zM68.305 88.326c-2.096-2.459-5.058-.724-5.173-.657 0 .133.267 3.555 3.468 3.898a2.048 2.048 0 0 0 1.705-3.24z"/>
                <path fill="#81AA29" d="M52.139 65.458c-3.754-3.413-8.031-.115-8.193 0 0 .21 1.124 5.5 6.192 5.376 2.582-.048 3.868-3.68 2-5.376z"/>
                <path fill="#81AA29" d="M52.12 69.566c-3.81-2.03-6.669 1.592-6.783 1.735.076.162 2.086 4.309 6.25 3.146a2.745 2.745 0 0 0 .533-4.88z"/>
                <path fill="#A0CB4E" d="M55.54 67.212c-1.286-4.605 3.286-6.816 3.467-6.902.162.124 4.154 3.27 1.906 7.483-1.125 2.154-4.735 1.706-5.373-.581z"/>
                <path fill="#B2DE5D" d="M58.617 68.203c-1.639-4.595-6.764-3.746-6.964-3.708-.057.2-1.534 5.176 2.858 7.369 2.181 1.134 4.925-1.373 4.106-3.661z"/>
                <path fill="#A0CB4E" d="M66.248 61.13a5.016 5.016 0 0 1 2.914-6.466l.027-.01a5.01 5.01 0 0 1 6.46 2.917l25.857 68.41a5.016 5.016 0 0 1-2.913 6.466l-.028.01a5.01 5.01 0 0 1-6.46-2.917L66.249 61.13z"/>
                <path fill="#81AA29" d="M73.63 60.615c-1.41-3.489 1.982-5.624 2.115-5.72.134.086 3.534 2.193 2.153 5.72a2.391 2.391 0 0 1-4.268 0zM66.848 63.389c-3.497-1.392-2.696-5.32-2.668-5.472.153 0 4.03-1.039 5.602 2.383a2.394 2.394 0 0 1-2.934 3.089z"/>
                <path fill="#A0CB4E" d="M75.726 59.776c-.2-7.369-7.945-8.58-8.25-8.58-.18.258-4.63 6.674.59 11.907 2.65 2.65 7.755.343 7.66-3.327z"/>
                <path fill="#B2DE5D" d="M70.039 61.616c-3.144-2.069-1.572-5.72-1.515-5.9.162 0 4.154-.21 5.011 3.46a2.393 2.393 0 0 1-3.496 2.44z"/>
                <path fill="#81AA29" d="M72.135 62.665c-2.315-2.975.362-5.958.466-6.073.153 0 4.002 1.135 3.63 4.881a2.392 2.392 0 0 1-4.096 1.192z"/>
                <path fill="#81AA29" d="M68.962 63.932c-3.248-1.906-1.905-5.662-1.82-5.805.163 0 4.145-.429 5.183 3.184a2.394 2.394 0 0 1-3.363 2.621z"/>
                <path fill="#B2DE5D" d="M74.088 64.152c-2.01-3.184.952-5.892 1.067-5.996.152.057 3.867 1.534 3.124 5.223a2.392 2.392 0 0 1-4.191.773z"/>
                <path fill="#B2DE5D" d="M69.486 65.22c-2.715-2.603-.505-5.94-.41-6.073.153 0 4.126.553 4.297 4.309a2.393 2.393 0 0 1-3.887 1.763z"/>
                <path fill="#A0CB4E" d="M73.63 67.135c-1.133-5.347 4.25-7.54 4.459-7.626.171.153 4.496 4.033 1.629 8.684-1.439 2.374-5.526 1.573-6.088-1.058z"/>
                <path fill="#81AA29" d="M72.24 66.373c-2.315-2.974.361-5.958.466-6.073.153 0 4.001 1.135 3.63 4.881a2.392 2.392 0 0 1-4.097 1.192zM88.625 99.48c-1.8-3.308 1.315-5.815 1.438-5.92.143.067 3.81 1.773 2.792 5.405a2.391 2.391 0 0 1-4.23.515z"/>
                <path fill="#B2DE5D" d="M70.658 64.142c-.695-3.155-4.115-3.022-4.258-3.012-.057.124-1.439 3.26 1.229 5.071a2.047 2.047 0 0 0 3.03-2.059z"/>
                <path fill="#A0CB4E" d="M73.383 67.135c-2.506-4.404-7.621-2.612-7.793-2.535 0 .21-.638 5.576 4.22 7.035 2.468.753 4.82-2.307 3.573-4.5z"/>
                <path fill="#81AA29" d="M73.335 70.3c-3.973-1.725-6.516 2.116-6.62 2.269.094.162 2.419 4.128 6.477 2.64a2.745 2.745 0 0 0 .143-4.909zM76.079 69.862c.21-4.767 5.24-5.453 5.44-5.482.114.162 2.933 4.395-.506 7.712-1.781 1.697-5.04.153-4.934-2.23z"/>
                <path fill="#B2DE5D" d="M78.689 71.768c-.134-4.88-5.259-5.662-5.468-5.72-.115.172-3.068 4.443.39 7.884 1.763 1.792 5.145.267 5.078-2.164z"/>
                <path fill="#81AA29" d="M79.939 90.582a1.506 1.506 0 0 1 .873-1.948 1.51 1.51 0 0 1 1.942.882l14.214 37.604a1.506 1.506 0 0 1-.873 1.948 1.51 1.51 0 0 1-1.943-.882L79.939 90.582z"/>
                <path fill="#B2DE5D" d="M81.642 93.903c-1.229-2.984-4.582-2.269-4.716-2.24 0 .133-.857 3.46 2.087 4.766a2.047 2.047 0 0 0 2.629-2.526z"/>
                <g transform="translate(86.853 30.683)">
                    <rect width="81.394" height="103.725" x=".267" y="10.181" fill="#BFC3D4" rx="8.05"/>
                    <rect width="81.394" height="103.725" x=".267" y="12.326" fill="#878DA8" rx="8.05"/>
                    <path fill="#BFC3D4" d="M74.782 113.906H7.145a6.88 6.88 0 0 1-6.878-6.883v-89.96a6.88 6.88 0 0 1 6.878-6.882h67.637a6.88 6.88 0 0 1 6.878 6.882v89.95a6.885 6.885 0 0 1-2.01 4.873 6.876 6.876 0 0 1-4.868 2.02z"/>
                    <path fill="#878DA8" d="M8.44 19.06c0-1.592 1.3-2.883 2.879-2.883h59.28a2.88 2.88 0 0 1 2.878 2.884v86.775c0 1.593-1.299 2.884-2.878 2.884h-59.28a2.88 2.88 0 0 1-2.879-2.884V19.06z"/>
                    <path fill="#FFF" d="M8.44 16.735c0-1.593 1.3-2.884 2.879-2.884h59.28a2.88 2.88 0 0 1 2.878 2.884v86.775c0 1.593-1.299 2.884-2.878 2.884h-59.28a2.88 2.88 0 0 1-2.879-2.884V16.735z"/>
                    <path fill="#E9E9ED" d="M16.662 9.79h48.584v3.556a6.399 6.399 0 0 1-6.392 6.396h-35.79a6.394 6.394 0 0 1-6.393-6.396V9.838l-.01-.048z"/>
                    <path fill="#1C2444" d="M16.662 7.731h48.584v3.508a6.399 6.399 0 0 1-6.392 6.396h-35.79a6.394 6.394 0 0 1-6.393-6.396V7.731h-.01z"/>
                    <ellipse cx="41.764" cy="35.032" fill="#FFD766" rx="13.099" ry="13.107"/>
                    <ellipse cx="40.964" cy="7.731" fill="#1C2444" rx="7.335" ry="7.34"/>
                    <ellipse cx="40.964" cy="7.731" fill="#FFF" rx="2.591" ry="2.593"/>
                    <ellipse cx="20.796" cy="83.115" fill="#FFD766" rx="2.591" ry="2.593"/>
                    <ellipse cx="20.796" cy="96.146" fill="#FFD766" rx="2.591" ry="2.593"/>
                    <path fill="#68739B" d="M38.262 55.098c.771 0 1.396.625 1.396 1.407a1.4 1.4 0 0 1-1.396 1.406h-6.267c-.77 0-1.396-.624-1.396-1.406a1.4 1.4 0 0 1 1.396-1.407h6.267zM64.392 55.089c.771 0 1.396.624 1.396 1.406 0 .777-.618 1.406-1.396 1.406h-21.24a1.398 1.398 0 0 1-1.396-1.406c0-.776.618-1.406 1.396-1.406h21.24zM48.24 68.425a1.407 1.407 0 0 1 0 2.812H32a1.407 1.407 0 0 1 0-2.812h16.24zM64.395 68.425c.77 0 1.394.624 1.394 1.406 0 .777-.632 1.407-1.394 1.407H52.922c-.769 0-1.393-.625-1.393-1.407 0-.776.631-1.406 1.393-1.406h11.473zM48.157 97.548a1.407 1.407 0 0 1 0-2.812h16.24a1.407 1.407 0 0 1 0 2.812h-16.24zM31.993 97.557c-.77 0-1.393-.624-1.393-1.406 0-.777.63-1.406 1.393-1.406h11.473c.77 0 1.393.624 1.393 1.406 0 .777-.631 1.406-1.393 1.406H31.993zM37.801 81.714a1.4 1.4 0 0 1 1.4 1.406c0 .776-.618 1.406-1.4 1.406h-5.793a1.4 1.4 0 0 1-1.4-1.406c0-.777.619-1.406 1.4-1.406h5.793zM45.112 81.714c.77 0 1.396.624 1.396 1.406 0 .776-.622 1.406-1.396 1.406h-2.629c-.77 0-1.395-.624-1.395-1.406 0-.777.621-1.406 1.395-1.406h2.629zM64.39 81.714c.773 0 1.398.624 1.398 1.406 0 .776-.634 1.406-1.397 1.406H49.926a1.399 1.399 0 0 1-1.397-1.406c0-.777.634-1.406 1.397-1.406h14.465z"/>
                    <path fill="#A0CB4E" d="M21.072 60.866l-4.306-3.603a1.236 1.236 0 0 1 1.572-1.907l2.249 1.907 3.296-4.767a1.222 1.222 0 1 1 2.01 1.392l-4.82 6.978zM21.072 73.916l-4.306-3.603a1.236 1.236 0 0 1 1.572-1.907l2.249 1.907 3.296-4.767a1.222 1.222 0 1 1 2.01 1.392l-4.82 6.978z"/>
                    <ellipse cx="41.649" cy="29.942" fill="#F2672A" rx="3.649" ry="3.651"/>
                    <path fill="#F2672A" d="M47.184 41.83a1.905 1.905 0 0 0 1.8-2.47 7.745 7.745 0 0 0-7.335-5.263 7.745 7.745 0 0 0-7.335 5.263 1.908 1.908 0 0 0 1.8 2.47h11.07z"/>
                    <path fill="#2F3A5B" d="M58.111 12.85H45.527a1.429 1.429 0 0 1-1.286-2.05c.21-.457 1.981-4.537-1.906-6.348a1.43 1.43 0 0 1 1.22-2.584 6.728 6.728 0 0 1 3.677 3.813 7.993 7.993 0 0 1 .2 4.271h10.68a1.43 1.43 0 0 1 0 2.86v.038zM35.448 12.85H20.444a1.43 1.43 0 0 1 0-2.86h15.004a1.43 1.43 0 0 1 0 2.86zM61.636 12.84c-.19 0-.377-.036-.553-.104a1.553 1.553 0 0 1-.466-.315 1.43 1.43 0 0 1-.42-1.01 1.402 1.402 0 0 1 0-.277c.02-.092.048-.181.086-.267.035-.087.08-.17.133-.248a1.23 1.23 0 0 1 .172-.219c.067-.065.14-.122.22-.171a.952.952 0 0 1 .247-.134 1.21 1.21 0 0 1 .267-.086 1.438 1.438 0 0 1 1.714 1.402 1.448 1.448 0 0 1-1.429 1.43h.029z"/>
                </g>
                <g>
                    <g transform="translate(40.174 130.775)">
                        <ellipse cx="65.18" cy="48.359" fill="#E9E9ED" rx="10.489" ry="2.183"/>
                        <ellipse cx="18.786" cy="48.359" fill="#E9E9ED" rx="10.489" ry="2.183"/>
                        <path fill="#1C2444" d="M24.75 20.142h37.858v8.494H24.75z"/>
                        <ellipse cx="79.355" cy="24.394" fill="#1C2444" rx="4.249" ry="4.252"/>
                        <path fill="#BFC3D4" d="M79.707 35.096a4.038 4.038 0 0 1-4.034 4.035 4.03 4.03 0 0 1-4.034-4.035V13.701a4.038 4.038 0 0 1 4.034-4.035 4.03 4.03 0 0 1 4.034 4.035v21.395z"/>
                        <path fill="#878DA8" d="M71.696 41.853c0 3.599-2.91 6.516-6.502 6.516h-.038a6.503 6.503 0 0 1-6.502-6.516V6.944c0-3.598 2.91-6.515 6.502-6.515h.038a6.503 6.503 0 0 1 6.502 6.515v34.91z"/>
                        <ellipse cx="4.611" cy="24.394" fill="#1C2444" rx="4.249" ry="4.252"/>
                        <path fill="#BFC3D4" d="M4.258 13.692a4.038 4.038 0 0 1 4.035-4.035 4.03 4.03 0 0 1 4.034 4.035v21.395a4.038 4.038 0 0 1-4.034 4.035 4.03 4.03 0 0 1-4.035-4.035V13.692z"/>
                        <path fill="#878DA8" d="M12.26 6.935c0-3.599 2.911-6.516 6.502-6.516h.038a6.503 6.503 0 0 1 6.502 6.516v34.909c0 3.598-2.91 6.515-6.502 6.515h-.038a6.503 6.503 0 0 1-6.502-6.515V6.934z"/>
                        <path fill="#FFF" d="M76.554 14.013a1.448 1.448 0 0 1-1.01-.42 1.268 1.268 0 0 1-.304-.467 1.326 1.326 0 0 1-.115-.543 1.26 1.26 0 0 1 0-.276c.018-.092.047-.182.086-.267a.887.887 0 0 1 .133-.248.953.953 0 0 1 .172-.22c.068-.065.142-.126.219-.18l.248-.134.266-.076a1.39 1.39 0 0 1 .562 0l.267.076c.083.039.162.083.238.134a1.45 1.45 0 0 1 .638 1.192c.005.379-.147.744-.419 1.01-.26.26-.612.411-.98.419zM9.25 14.013c-.382 0-.748-.15-1.02-.42a1.277 1.277 0 0 1-.304-.467 1.326 1.326 0 0 1-.114-.543 1.26 1.26 0 0 1 0-.276c.018-.092.047-.182.085-.267.036-.088.08-.17.134-.248a1.296 1.296 0 0 1 .638-.524 1.39 1.39 0 0 1 1.096 0c.087.031.17.073.247.124.077.052.147.113.21.18a1.43 1.43 0 0 1 .314 1.554c-.07.177-.176.337-.314.468-.13.132-.285.236-.457.305-.163.071-.338.11-.515.114z"/>
                        <path fill="#68739B" d="M75.106 37.492c-.186 0-.37-.036-.543-.105a1.543 1.543 0 0 1-.467-.315 1.516 1.516 0 0 1-.314-.457 1.583 1.583 0 0 1-.105-.553 1.393 1.393 0 0 1 0-.276c.019-.092.048-.182.086-.267a1.23 1.23 0 0 1 .124-.248c.055-.077.116-.15.18-.22.07-.065.143-.125.22-.18.077-.052.16-.093.248-.125a1.4 1.4 0 0 1 1.096 0c.083.032.163.073.237.124.08.053.153.114.22.182.065.068.125.142.18.219.05.08.095.162.134.248.03.087.056.176.076.267a1.43 1.43 0 0 1-1.4 1.706h.028z"/>
                        <path fill="#BFC3D4" d="M22.177 8.58a1.43 1.43 0 0 1-1.428-1.43 1.907 1.907 0 0 0-1.906-2.088 1.43 1.43 0 0 1 0-2.86 4.762 4.762 0 0 1 4.763 4.947c0 .79-.64 1.43-1.429 1.43z"/>
                        <path fill="#68739B" d="M18.777 46.653a4.762 4.762 0 0 1-4.764-4.948 1.43 1.43 0 1 1 2.858 0 1.907 1.907 0 0 0 1.906 2.088 1.43 1.43 0 0 1 0 2.86zM65.227 46.92a4.762 4.762 0 0 1-4.763-4.948 1.43 1.43 0 1 1 2.858 0 1.907 1.907 0 0 0 1.905 2.088 1.43 1.43 0 0 1 0 2.86z"/>
                        <path fill="#2F3A5B" d="M55.958 24.394H27.627a1.43 1.43 0 0 1 0-2.86h28.34a1.43 1.43 0 0 1 0 2.86h-.009z"/>
                        <path fill="#BFC3D4" d="M68.457 8.58a1.43 1.43 0 0 1-1.43-1.43 1.907 1.907 0 0 0-1.904-2.088 1.43 1.43 0 0 1 0-2.86 4.762 4.762 0 0 1 4.763 4.947c0 .79-.64 1.43-1.43 1.43z"/>
                    </g>
                    <path fill="#68739B" d="M47.175 167.323a1.371 1.371 0 0 1-1.01-.42 1.24 1.24 0 0 1-.314-.457 1.373 1.373 0 0 1-.114-.553 1.42 1.42 0 0 1 .429-1.01c.34-.33.82-.476 1.286-.39.091.019.18.048.266.085.088.035.17.08.248.133a.953.953 0 0 1 .21.172c.266.27.417.632.419 1.01.004.38-.148.746-.42 1.01-.249.261-.591.412-.952.42h-.048z"/>
                </g>
                <path fill="#F2672A" d="M101.276 223.242c-22.216 0-43.088-1.811-47.556-7.064-1.267-1.487-1.143-2.679-.82-3.422 1.763-4.07 14.214-4.948 34.515-5.91 10.793-.515 20.958-.954 25.836-2.412l.533 1.83c-5.058 1.478-15.366 1.964-26.283 2.488-13.27.63-31.437 1.487-32.857 4.767-.152.352 0 .838.524 1.43 4.497 5.29 32.152 7.626 68.8 5.814 35.981-1.782 65.932-6.873 72.839-12.392.562-.448 1.486-1.297 1.276-1.907-.41-1.2-3.991-3.422-23.368-4.766-13.623-.953-31.437-1.287-48.585-1.601-28.865-.525-56.139-1.03-61.978-4.48-.886-.525-3.23-1.907-2.658-3.595.371-1.105 1.076-3.155 21.225-1.734 9.621.676 19.205 1.858 19.3 1.906l-.229 1.907c-17.08-2.107-36.4-3.232-38.439-1.45a5.411 5.411 0 0 0 1.763 1.373c5.42 3.194 33.695 3.718 61.054 4.214 44.536.81 71.725 1.735 73.744 7.683.439 1.306-.19 2.65-1.905 4.013-8.43 6.74-43.212 11.296-73.934 12.812-7.345.267-15.147.496-22.797.496z"/>
                <path fill="#2F3A5B" d="M98.504 192.938a3.013 3.013 0 0 1 3.015-3.013h21.177a3.013 3.013 0 0 1 0 6.025h-21.177a3.007 3.007 0 0 1-3.015-3.012z"/>
                <path fill="#68739B" d="M122.415 193.595H102.23a1.43 1.43 0 0 1 0-2.86h20.177a1.43 1.43 0 0 1 0 2.86h.01z"/>
                <path fill="#2F3A5B" d="M105.862 206.106a3.014 3.014 0 0 1 2.504-3.45l20.911-3.342a3.006 3.006 0 0 1 3.453 2.5 3.014 3.014 0 0 1-2.504 3.45l-20.911 3.34a3.006 3.006 0 0 1-3.453-2.498z"/>
                <path fill="#68739B" d="M110.24 206.722a1.435 1.435 0 0 1-.247-2.86l19.176-3.45a1.451 1.451 0 0 1 .505 2.859l-19.176 3.45h-.258z"/>
            </g>
        </g>
    </g>
</svg>
